<svg width="24" height="24" viewBox="0 0 24 24" fill="none" xmlns="http://www.w3.org/2000/svg">
<path d="M22.12 4.48468L19.6396 2.00432C19.2379 1.60263 18.7045 1.38159 18.137 1.38159C17.5695 1.38159 17.0361 1.60263 16.6344 2.00432L13.0235 5.61525H2.10996C1.64026 5.61525 1.25983 5.99568 1.25983 6.46539V21.7679C1.25983 22.2376 1.64026 22.618 2.10996 22.618H17.4124C17.8821 22.618 18.2626 22.2376 18.2626 21.7679V11.3472L22.1201 7.48963C22.948 6.6618 22.948 5.31328 22.1201 4.48446L22.12 4.48468ZM9.09269 18.7139L5.38496 18.7384L5.4094 15.0306L15.848 4.5921L19.5301 8.27421L18.2612 9.54305L9.09269 18.7139ZM21.2177 6.58894L20.4324 7.37426L16.7503 3.69215L17.5356 2.90683C17.7013 2.74105 17.9192 2.65816 18.137 2.65816C18.3549 2.65816 18.5717 2.74104 18.7385 2.90683L21.2189 5.38719C21.5494 5.71874 21.5494 6.25752 21.2178 6.58908L21.2177 6.58894Z" fill="white"/>
</svg>
