<svg width="49" height="48" viewBox="0 0 49 48" fill="none" xmlns="http://www.w3.org/2000/svg">
<rect width="48" height="48" transform="translate(0.5)" fill="black" fill-opacity="0.1"/>
<g clip-path="url(#clip0_8_2887)">
<path d="M37.5267 12.9817C38.2307 13.1635 38.8739 13.5286 39.3909 14.0397C39.9079 14.5509 40.2803 15.1899 40.4701 15.8917C40.9551 18.5551 41.1867 21.2584 41.1651 23.9634C41.1822 26.6425 40.9495 29.3174 40.4701 31.9534C40.2932 32.6703 39.9265 33.3264 39.4086 33.8528C38.8907 34.3792 38.2407 34.7565 37.5267 34.9451C33.2051 35.4751 28.8534 35.7117 24.5001 35.6601C20.1467 35.7133 15.7947 35.4744 11.4734 34.9451C10.7694 34.7633 10.1262 34.3982 9.60923 33.887C9.09221 33.3759 8.71986 32.7369 8.53006 32.0351C8.04566 29.3723 7.81296 26.6698 7.83506 23.9634C7.81789 21.2848 8.05056 18.6104 8.53006 15.9751C8.70668 15.2578 9.0732 14.6013 9.59111 14.0746C10.109 13.5479 10.7592 13.1704 11.4734 12.9817C15.7967 12.4817 20.1484 12.2701 24.5001 12.3501C28.8515 12.2692 33.2035 12.4802 37.5267 12.9817ZM21.0834 19.0767V28.8501L29.8051 23.9634L21.0834 19.0767Z" fill="white"/>
</g>
<defs>
<clipPath id="clip0_8_2887">
<rect width="40" height="40" fill="white" transform="translate(4.5 4)"/>
</clipPath>
</defs>
</svg>
