<svg width="25" height="24" viewBox="0 0 25 24" fill="none" xmlns="http://www.w3.org/2000/svg">
<path d="M21.4849 17.6475H19.1069L19.9829 20.0723L18.1938 20.4277L17.189 17.6475H7.81006L6.80518 20.4277L5.01611 20.0723L5.89209 17.6475H3.51514V6.0625H21.4849V17.6475ZM12.0317 8.65527C9.97658 8.65528 8.31039 10.3219 8.31006 12.377C8.31012 14.4323 9.97641 16.0986 12.0317 16.0986C14.0866 16.0981 15.7534 14.4319 15.7534 12.377H12.0317V8.65527ZM12.7271 11.5742H16.6899C16.6898 9.38574 14.9154 7.61112 12.7271 7.61035V11.5742ZM22.3159 5.4248H2.68311V3.57227H22.3159V5.4248Z" fill="white"/>
</svg>
