<svg width="101" height="100" viewBox="0 0 101 100" fill="none" xmlns="http://www.w3.org/2000/svg">
<g clip-path="url(#clip0_36_1012)">
<path d="M71.2772 51.133V51.0439C71.2772 39.6447 62.0033 30.4006 50.5448 30.3857H50.515C39.0416 30.3857 29.7231 39.6447 29.7231 51.0439V51.133C29.7529 57.9695 33.1265 64.0332 38.2985 67.7784C39.7104 68.8039 40.7656 70.2158 41.3749 71.806C41.7465 72.7869 41.9545 73.8273 41.9545 74.8973V81.3177C41.9545 83.0417 43.3516 84.4238 45.0756 84.4238H55.9248C57.6636 84.4238 59.0458 83.0268 59.0458 81.3177V74.8973C59.0458 73.8273 59.239 72.7869 59.6254 71.806C60.2348 70.2158 61.29 68.8188 62.7018 67.7784C67.8738 64.0481 71.2475 57.9844 71.2772 51.133Z" fill="white"/>
<path d="M45.4172 84.4238C45.4172 87.3814 47.7208 89.7741 50.5892 89.7741C53.4576 89.7741 55.7612 87.3814 55.7612 84.4238" fill="white"/>
<path d="M64.6785 51.3412C64.6785 59.3666 58.1244 65.8762 50.0543 65.8762C41.9843 65.8762 35.4302 59.3666 35.4302 51.3412C35.4302 43.3157 41.9843 36.8062 50.0543 36.8062C58.1244 36.8062 64.6785 43.3157 64.6785 51.3412Z" fill="url(#paint0_linear_36_1012)"/>
<path d="M64.6785 51.3412C64.6785 59.3666 58.1244 65.8762 50.0543 65.8762C41.9843 65.8762 35.4302 59.3666 35.4302 51.3412C35.4302 43.3157 41.9843 36.8062 50.0543 36.8062C58.1244 36.8062 64.6785 43.3157 64.6785 51.3412Z" stroke="black" stroke-miterlimit="8"/>
<path d="M87.1199 44.3709V57.8507L80.0605 58.3263L76.5085 66.9016L81.1603 72.2371L71.6189 81.7487L66.2686 77.0969L62.8801 78.4939H58.9862V75.0311C58.9862 73.961 59.1794 72.9207 59.551 71.9398C60.1455 70.3496 61.2007 68.9526 62.6125 67.9122C67.7696 64.1819 71.1284 58.1182 71.1582 51.2668V51.1776C71.1582 39.7785 61.914 30.5195 50.4852 30.5047H50.4555C39.0117 30.5047 29.7379 39.7637 29.7379 51.1776V51.2668C29.7676 58.1033 33.1413 64.167 38.2835 67.9122C39.6954 68.9377 40.7506 70.3496 41.3451 71.9398C41.7166 72.9207 41.9098 73.961 41.9098 75.0311V78.4939H38.016L34.6275 77.0969L29.2772 81.7487L19.7506 72.2371L24.4024 66.9016L20.8356 58.3263L13.7761 57.8507V44.3709L20.8356 43.8953L24.4024 35.3348L19.7506 29.9845L29.2772 20.458L34.6275 25.1098L43.2028 21.5726L43.6784 14.5132H57.1731L57.6486 21.5726L66.2091 25.1098L71.5594 20.458L81.1008 29.9845L76.449 35.3348L80.001 43.8953L87.0605 44.3709H87.0308H87.1199Z" stroke="black" stroke-linecap="round" stroke-linejoin="round"/>
<path d="M71.2772 51.133V51.0439C71.2772 39.6447 62.0033 30.4006 50.5448 30.3857H50.515C39.0416 30.3857 29.7231 39.6447 29.7231 51.0439V51.133C29.7529 57.9695 33.1265 64.0332 38.2985 67.7784C39.7104 68.8039 40.7656 70.2158 41.3749 71.806C41.7465 72.7869 41.9545 73.8273 41.9545 74.8973V81.3177C41.9545 83.0417 43.3516 84.4238 45.0756 84.4238H55.9248C57.6636 84.4238 59.0458 83.0268 59.0458 81.3177V74.8973C59.0458 73.8273 59.239 72.7869 59.6254 71.806C60.2348 70.2158 61.29 68.8188 62.7018 67.7784C67.8738 64.0481 71.2475 57.9844 71.2772 51.133Z" stroke="black" stroke-linecap="round" stroke-linejoin="round"/>
<path d="M59.5063 71.7615H50.5446H41.4937" stroke="black" stroke-linecap="round" stroke-linejoin="round"/>
<path d="M58.9714 78.1819H42.0288" stroke="black" stroke-linecap="round" stroke-linejoin="round"/>
<path d="M45.4172 84.4238C45.4172 87.3814 47.7208 89.7741 50.5892 89.7741C53.4576 89.7741 55.7612 87.3814 55.7612 84.4238" stroke="black" stroke-linecap="round" stroke-linejoin="round"/>
<path d="M38.0905 78.4941L34.7019 77.097L29.3516 81.7488L19.8251 72.2074L24.4769 66.8571L20.9249 58.2818L13.8506 57.7765V44.2818L20.9249 43.7914L24.4769 35.216L19.8251 29.8657L29.3516 20.3095L34.7019 24.9761L43.2624 21.4241L43.7677 14.335H57.2327L57.738 21.4241L66.2985 24.9761L71.6488 20.3095L81.1902 29.8657L76.5235 35.216L80.0755 43.7914L87.1498 44.2818V57.7765L80.0755 58.2818L76.5235 66.8571L81.1902 72.2074L71.6488 81.7488L66.2985 77.097L62.9099 78.4941" stroke="black" stroke-linecap="round" stroke-linejoin="round"/>
<path d="M71.2772 51.2818H63.3558C63.2517 51.2818 63.1626 51.2224 63.118 51.1183C63.0734 51.0143 63.1031 50.9103 63.1774 50.836C63.6679 50.3604 64.3069 49.4835 64.3069 48.1757C64.3069 46.0801 62.5532 44.3859 60.428 44.4899C58.481 44.5791 56.9205 46.199 56.876 48.1311C56.876 48.3689 56.876 49.7659 58.0055 50.836C58.0798 50.9103 58.1095 51.0143 58.0649 51.1183C58.0203 51.2075 57.9312 51.2818 57.8271 51.2818H43.2029C43.0989 51.2818 43.0097 51.3413 42.9652 51.4453C42.9206 51.5345 42.9503 51.6534 43.0246 51.7277C43.4853 52.2033 44.0947 53.0504 44.0947 54.3285C44.0947 56.4389 42.341 58.1183 40.2157 58.0143C38.2985 57.9251 36.738 56.3349 36.6934 54.4177C36.6934 54.1799 36.6637 52.8275 37.7635 51.7277C37.8378 51.6534 37.8526 51.5493 37.8229 51.4453C37.7783 51.3561 37.6892 51.2818 37.5851 51.2818H29.7231" stroke="black" stroke-linecap="round" stroke-linejoin="round"/>
<path d="M50.619 30.3857V38.322C50.619 38.4261 50.5596 38.5152 50.4555 38.5598C50.3664 38.6044 50.2475 38.5747 50.1732 38.5004C49.6976 38.0099 48.8207 37.3709 47.5129 37.3709C45.4025 37.3709 43.7231 39.1097 43.8271 41.235C43.9163 43.167 45.5362 44.7275 47.4683 44.7573C47.7061 44.7573 49.0882 44.7573 50.1732 43.6278C50.2475 43.5534 50.3515 43.5237 50.4555 43.5683C50.5596 43.6129 50.619 43.7021 50.619 43.8061V58.3708C50.619 58.4749 50.6785 58.564 50.7825 58.6086C50.8865 58.6532 50.9906 58.6235 51.0649 58.5492C51.5405 58.0884 52.3876 57.4791 53.6657 57.4791C55.7761 57.4791 57.4555 59.218 57.3515 61.3432C57.2623 63.2455 55.6721 64.8061 53.7549 64.8506C53.5171 64.8506 52.1647 64.8804 51.0649 63.7806C50.9906 63.7063 50.8865 63.6914 50.7825 63.7211C50.6933 63.7657 50.619 63.8549 50.619 63.9589V71.7466" stroke="black" stroke-linecap="round" stroke-linejoin="round"/>
</g>
<defs>
<linearGradient id="paint0_linear_36_1012" x1="42.772" y1="63.9441" x2="57.3367" y2="38.7382" gradientUnits="userSpaceOnUse">
<stop stop-color="#00B3EC"/>
<stop offset="0.16" stop-color="#00A6D2"/>
<stop offset="0.55" stop-color="#00899B"/>
<stop offset="0.84" stop-color="#007779"/>
<stop offset="1" stop-color="#00716C"/>
</linearGradient>
<clipPath id="clip0_36_1012">
<rect width="74.7854" height="76.9255" fill="white" transform="translate(13.1074 13.5918)"/>
</clipPath>
</defs>
</svg>
