<svg width="609" height="119" viewBox="0 0 609 119" fill="none" xmlns="http://www.w3.org/2000/svg">
<g clip-path="url(#clip0_6_307)">
<g clip-path="url(#clip1_6_307)">
<path d="M90.9884 65.0062V33.5903C90.9884 32.6656 91.5245 32.1295 92.4493 32.1295H98.1454C99.0702 32.1295 99.6063 32.6656 99.6063 33.5903V65.0062C99.6063 65.9309 99.0702 66.467 98.1454 66.467H92.4493C91.5245 66.467 90.9884 65.9309 90.9884 65.0062Z" fill="#028493"/>
<path d="M105.731 65.0062V33.5903C105.731 32.6656 106.267 32.1295 107.192 32.1295H127.953C135.686 32.1295 139.426 36.6998 139.426 45.0228V53.7747C139.426 62.0442 135.686 66.467 127.953 66.467H107.192C106.267 66.467 105.731 65.9309 105.731 65.0062ZM126.881 58.2914C129.065 58.2914 130.875 57.8089 130.875 53.6675V45.063C130.875 40.935 129.226 40.3989 126.881 40.3989H114.376V58.2914H126.881Z" fill="#028493"/>
<path d="M144.934 65.0062V33.5903C144.934 32.6656 145.47 32.1295 146.395 32.1295H172.503C173.428 32.1295 173.964 32.6656 173.964 33.5903V38.938C173.964 39.8628 173.428 40.3989 172.503 40.3989H153.539V45.4517H165.065C165.99 45.4517 166.526 45.9878 166.526 46.9126V51.4829C166.526 52.4077 165.99 52.9438 165.065 52.9438H153.539V58.1976H172.503C173.428 58.1976 173.964 58.7337 173.964 59.6585V65.0062C173.964 65.9309 173.428 66.467 172.503 66.467H146.395C145.47 66.467 144.934 65.9309 144.934 65.0062Z" fill="#028493"/>
<path d="M206.064 65.3412L204.308 61.106H187.621L185.866 65.3412C185.571 66.065 184.995 66.4536 184.164 66.4536H177.65C176.537 66.4536 176.095 65.7701 176.537 64.7515L190.892 33.2419C191.227 32.4645 191.763 32.1295 192.594 32.1295H199.349C200.18 32.1295 200.716 32.4645 201.051 33.2419L215.392 64.7515C215.834 65.7701 215.392 66.4536 214.279 66.4536H207.766C206.935 66.4536 206.358 66.065 206.064 65.3412ZM201.44 54.1098L195.998 40.9752L190.557 54.1098H201.453H201.44Z" fill="#028493"/>
<path d="M217.456 56.4016C217.402 55.4233 217.992 54.9006 218.917 54.9006H224.707C225.578 54.9006 225.966 55.383 226.208 56.3078C226.543 57.6213 227.427 58.211 228.928 58.211H238.699C240.843 58.211 241.768 57.6213 241.768 55.8789C241.768 54.1366 240.991 53.4933 238.994 53.3458L228.004 52.5149C220.565 51.9252 217.643 49.1642 217.643 42.6907C217.643 36.2173 220.954 32.1429 229.17 32.1429H238.31C245.655 32.1429 249.3 35.7482 249.783 42.2082C249.837 43.1866 249.247 43.7093 248.322 43.7093H242.532C241.661 43.7093 241.272 43.2268 241.031 42.3021C240.696 40.9886 239.811 40.3989 238.31 40.3989H229.264C227.119 40.3989 226.194 40.9886 226.194 42.7309C226.194 44.4733 226.972 45.063 228.969 45.2104L239.959 46.0414C247.344 46.5775 250.319 49.4993 250.319 55.9191C250.319 62.339 247.009 66.467 238.793 66.467H228.915C221.57 66.467 217.925 62.8617 217.442 56.4016H217.456Z" fill="#028493"/>
<path d="M277.794 54.3645V43.7093C277.794 36.6998 281.534 31.848 289.321 31.848H300.164C307.95 31.848 311.69 36.7132 311.69 43.7093C311.69 44.5805 311.154 45.0764 310.229 45.0764H304.493C303.568 45.0764 303.032 44.7816 303.032 44.2455V43.4145C303.032 40.4525 302.013 40.104 300.164 40.104H289.321C287.471 40.104 286.453 40.4391 286.453 43.4145V54.6459C286.453 57.5677 287.619 57.9028 289.321 57.9028H300.164C301.866 57.9028 303.032 57.5677 303.032 54.6459V53.9222C303.032 52.9974 303.568 52.4613 304.493 52.4613H310.229C311.154 52.4613 311.69 52.7963 311.69 53.3861V54.3645C311.69 61.3204 307.95 66.1856 300.164 66.1856H289.321C281.534 66.1856 277.794 61.3204 277.794 54.3645Z" fill="#251F20" stroke="#251F20" stroke-width="1.29" stroke-miterlimit="10"/>
<path d="M316.716 64.7247V33.3089C316.716 32.3841 317.252 31.848 318.177 31.848H323.913C324.838 31.848 325.374 32.3841 325.374 33.3089V45.4249H340.452V33.3089C340.452 32.3841 340.988 31.848 341.913 31.848H347.649C348.574 31.848 349.11 32.3841 349.11 33.3089V64.7247C349.11 65.6495 348.574 66.1856 347.649 66.1856H341.913C340.988 66.1856 340.452 65.6495 340.452 64.7247V52.9036H325.374V64.7247C325.374 65.6495 324.838 66.1856 323.913 66.1856H318.177C317.252 66.1856 316.716 65.6495 316.716 64.7247Z" fill="#251F20" stroke="#251F20" stroke-width="1.29" stroke-miterlimit="10"/>
<path d="M382.469 65.0598L380.713 60.8245H364.027L362.271 65.0598C361.977 65.7835 361.4 66.1722 360.569 66.1722H354.056C352.943 66.1722 352.501 65.4887 352.943 64.4701L367.284 32.9604C367.619 32.1831 368.155 31.848 368.986 31.848H375.741C376.572 31.848 377.108 32.1831 377.443 32.9604L391.784 64.4701C392.226 65.4887 391.784 66.1722 390.672 66.1722H384.158C383.327 66.1722 382.751 65.7835 382.456 65.0598H382.469ZM377.845 53.8284L372.404 40.6938L366.962 53.8284H377.859H377.845Z" fill="#251F20" stroke="#251F20" stroke-width="1.29" stroke-miterlimit="10"/>
<path d="M395.657 64.7247V33.3089C395.657 32.3841 396.193 31.848 397.118 31.848H402.855C403.779 31.848 404.315 32.3841 404.315 33.3089V57.9162H422.061C422.985 57.9162 423.521 58.4523 423.521 59.3771V64.7247C423.521 65.6495 422.985 66.1856 422.061 66.1856H397.118C396.193 66.1856 395.657 65.6495 395.657 64.7247Z" fill="#251F20" stroke="#251F20" stroke-width="1.29" stroke-miterlimit="10"/>
<path d="M427.167 64.7247V33.3089C427.167 32.3841 427.703 31.848 428.628 31.848H434.364C435.289 31.848 435.825 32.3841 435.825 33.3089V57.9162H453.57C454.495 57.9162 455.031 58.4523 455.031 59.3771V64.7247C455.031 65.6495 454.495 66.1856 453.57 66.1856H428.628C427.703 66.1856 427.167 65.6495 427.167 64.7247Z" fill="#251F20" stroke="#251F20" stroke-width="1.29" stroke-miterlimit="10"/>
<path d="M458.69 64.7247V33.3089C458.69 32.3841 459.226 31.848 460.151 31.848H486.259C487.184 31.848 487.72 32.3841 487.72 33.3089V38.6566C487.72 39.5813 487.184 40.1174 486.259 40.1174H467.295V45.1702H478.821C479.746 45.1702 480.282 45.7063 480.282 46.6311V51.2014C480.282 52.1262 479.746 52.6623 478.821 52.6623H467.295V57.9162H486.259C487.184 57.9162 487.72 58.4523 487.72 59.3771V64.7247C487.72 65.6495 487.184 66.1856 486.259 66.1856H460.151C459.226 66.1856 458.69 65.6495 458.69 64.7247Z" fill="#251F20" stroke="#251F20" stroke-width="1.29" stroke-miterlimit="10"/>
<path d="M492.585 64.7247V33.3089C492.585 32.3841 493.121 31.848 494.046 31.848H499.635C500.412 31.848 500.949 32.1429 501.431 32.7192L517.233 52.9036V33.3089C517.233 32.3841 517.769 31.848 518.694 31.848H524.43C525.355 31.848 525.891 32.3841 525.891 33.3089V64.7247C525.891 65.6495 525.355 66.1856 524.43 66.1856H518.841C518.064 66.1856 517.528 65.8907 517.045 65.3144L501.243 45.2239V64.7247C501.243 65.6495 500.707 66.1856 499.783 66.1856H494.046C493.121 66.1856 492.585 65.6495 492.585 64.7247Z" fill="#251F20" stroke="#251F20" stroke-width="1.29" stroke-miterlimit="10"/>
<path d="M531.011 54.3645V43.7093C531.011 36.6998 534.75 31.848 542.537 31.848H553.862C561.059 31.848 564.799 35.7884 565.335 41.9134C565.389 42.8918 564.799 43.4145 563.874 43.4145H558.138C557.213 43.4145 556.771 42.932 556.637 41.9536C556.302 40.3453 555.377 40.104 553.862 40.104H542.537C540.687 40.104 539.669 40.4391 539.669 43.4145V54.6459C539.669 57.5677 540.835 57.9028 542.537 57.9028H553.862C555.564 57.9028 556.73 57.5677 556.73 54.6459V53.5335H550.512C549.587 53.5335 549.051 52.9974 549.051 52.0726V47.5559C549.051 46.6311 549.587 46.095 550.512 46.095H563.928C564.852 46.095 565.389 46.6311 565.389 47.5559V54.3645C565.389 61.3204 561.649 66.1856 553.862 66.1856H542.537C534.75 66.1856 531.011 61.3204 531.011 54.3645Z" fill="#251F20" stroke="#251F20" stroke-width="1.29" stroke-miterlimit="10"/>
<path d="M570.897 64.7247V33.3089C570.897 32.3841 571.433 31.848 572.358 31.848H598.466C599.391 31.848 599.927 32.3841 599.927 33.3089V38.6566C599.927 39.5813 599.391 40.1174 598.466 40.1174H579.501V45.1702H591.028C591.953 45.1702 592.489 45.7063 592.489 46.6311V51.2014C592.489 52.1262 591.953 52.6623 591.028 52.6623H579.501V57.9162H598.466C599.391 57.9162 599.927 58.4523 599.927 59.3771V64.7247C599.927 65.6495 599.391 66.1856 598.466 66.1856H572.358C571.433 66.1856 570.897 65.6495 570.897 64.7247Z" fill="#251F20" stroke="#251F20" stroke-width="1.29" stroke-miterlimit="10"/>
<path d="M261.443 46.4033L259.071 48.856V52.4747L261.443 54.9274H265.25L267.609 52.4747V48.856L265.25 46.4033H261.443Z" fill="#261F20"/>
<path d="M92.771 89.2513H94.7278L99.2176 101.676H97.1268L96.0546 98.727H91.4173L90.3451 101.676H88.2543L92.771 89.2513ZM95.5721 97.0115L93.7494 91.7576H93.7091L91.9132 97.0115H95.5721Z" fill="#251F20"/>
<path d="M100.638 89.2516H108.331L110.409 91.329V99.5984L108.331 101.676H100.638V89.2516ZM107.326 99.9067L108.345 98.9149V92.0259L107.326 91.0341H102.689V99.9201H107.326V99.9067Z" fill="#251F20"/>
<path d="M111.468 89.2516H113.599L116.882 99.2365H116.923L120.206 89.2516H122.337L117.928 101.676H115.864L111.454 89.2516H111.468Z" fill="#251F20"/>
<path d="M125.782 89.2516H127.738L132.228 101.676H130.138L129.065 98.7272H124.428L123.356 101.676H121.265L125.782 89.2516ZM128.583 97.0117L126.76 91.7578H126.72L124.924 97.0117H128.583Z" fill="#251F20"/>
<path d="M133.649 89.2516H135.525L141.382 98.2849H141.423V89.2516H143.393V101.676H141.516L135.659 92.6558H135.619V101.676H133.649V89.2516Z" fill="#251F20"/>
<path d="M145.711 99.6788V91.262L147.722 89.2516H153.552L155.522 91.2217V92.8569H153.458V91.9455L152.52 91.0207H148.794L147.775 92.0125V98.9015L148.794 99.8933H152.52L153.458 98.9685V98.0571H155.522V99.6922L153.552 101.662H147.722L145.711 99.652V99.6788Z" fill="#251F20"/>
<path d="M157.372 89.2516H166.043V91.0073H159.436V94.559H165.521V96.3013H159.436V99.9201H166.043V101.676H157.372V89.2516Z" fill="#251F20"/>
<path d="M168 89.2516H175.693L177.771 91.329V99.5984L175.693 101.676H168V89.2516ZM174.688 99.9067L175.707 98.9149V92.0259L174.688 91.0341H170.051V99.9201H174.688V99.9067Z" fill="#251F20"/>
<path d="M194.189 97.6684V101.676H192.125V98.1643L190.852 96.757H186.804V101.676H184.74V89.2516H192.299L194.108 91.0743V94.8941L192.808 96.1941L194.175 97.6684H194.189ZM186.804 95.0683H191.388L192.098 94.358V91.7176L191.388 91.0073H186.804V95.0683Z" fill="#251F20"/>
<path d="M196.588 89.2516H205.259V91.0073H198.652V94.559H204.737V96.3013H198.652V99.9201H205.259V101.676H196.588V89.2516Z" fill="#251F20"/>
<path d="M206.935 99.8531V98.2849H208.959V99.2231L209.629 99.8933H213.502L214.212 99.1829V96.8911L213.515 96.1941H208.798L206.975 94.3848V91.0609L208.798 89.2382H214.266L216.089 91.0609V92.6424H214.065V91.6774L213.368 91.0073H209.669L208.972 91.6774V93.7415L209.669 94.4116H214.387L216.209 96.2477V99.7994L214.346 101.662H208.731L206.908 99.8397H206.935V99.8531Z" fill="#251F20"/>
<path d="M218.367 89.2516H227.039V91.0073H220.431V94.559H226.516V96.3013H220.431V99.9201H227.039V101.676H218.367V89.2516Z" fill="#251F20"/>
<path d="M232.44 89.2516H234.397L238.887 101.676H236.796L235.724 98.7272H231.086L230.014 101.676H227.923L232.44 89.2516ZM235.241 97.0117L233.418 91.7578H233.378L231.582 97.0117H235.241Z" fill="#251F20"/>
<path d="M249.756 97.6684V101.676H247.692V98.1643L246.419 96.757H242.371V101.676H240.307V89.2516H247.866L249.676 91.0743V94.8941L248.376 96.1941L249.743 97.6684H249.756ZM242.371 95.0683H246.955L247.665 94.358V91.7176L246.955 91.0073H242.371V95.0683Z" fill="#251F20"/>
<path d="M251.968 99.6788V91.262L253.978 89.2516H259.808L261.778 91.2217V92.8569H259.714V91.9455L258.776 91.0207H255.05L254.032 92.0125V98.9015L255.05 99.8933H258.776L259.714 98.9685V98.0571H261.778V99.6922L259.808 101.662H253.978L251.968 99.652V99.6788Z" fill="#251F20"/>
<path d="M263.641 89.2516H265.705V94.5992H271.348V89.2516H273.412V101.676H271.348V96.3684H265.705V101.676H263.641V89.2516Z" fill="#251F20"/>
<path d="M280.569 89.2516H288.128L289.937 91.0743V95.2961L288.115 97.1457H282.633V101.676H280.569V89.2516ZM287.203 95.4168L287.913 94.7064V91.7042L287.203 90.9939H282.619V95.4168H287.203Z" fill="#251F20"/>
<path d="M301.343 97.6684V101.676H299.279V98.1643L298.006 96.757H293.958V101.676H291.894V89.2516H299.453L301.263 91.0743V94.8941L299.962 96.1941L301.33 97.6684H301.343ZM293.958 95.0683H298.542L299.252 94.358V91.7176L298.542 91.0073H293.958V95.0683Z" fill="#251F20"/>
<path d="M303.554 99.6788V91.262L305.565 89.2516H311.703L313.714 91.262V99.6788L311.703 101.689H305.565L303.554 99.6788ZM310.644 99.9067L311.663 98.9149V92.0259L310.644 91.0341H306.637L305.618 92.0259V98.9149L306.637 99.9067H310.644Z" fill="#251F20"/>
<path d="M315.054 99.6118V97.4808H317.064V98.9149L318.056 99.9067H320.643L321.554 99.0221V89.2516H323.618V99.7056L321.648 101.676H317.131L315.054 99.5984V99.6118Z" fill="#251F20"/>
<path d="M326.004 89.2516H334.675V91.0073H328.068V94.559H334.153V96.3013H328.068V99.9201H334.675V101.676H326.004V89.2516Z" fill="#251F20"/>
<path d="M336.444 99.6788V91.262L338.455 89.2516H344.285L346.255 91.2217V92.8569H344.191V91.9455L343.253 91.0207H339.527L338.508 92.0125V98.9015L339.527 99.8933H343.253L344.191 98.9685V98.0571H346.255V99.6922L344.285 101.662H338.455L336.444 99.652V99.6788Z" fill="#251F20"/>
<path d="M350.866 91.0073H347.14V89.2516H356.656V91.0073H352.93V101.676H350.866V91.0073Z" fill="#251F20"/>
<path d="M357.54 99.8531V98.2849H359.564V99.2231L360.234 99.8933H364.108L364.818 99.1829V96.8911L364.121 96.1941H359.403L357.567 94.3848V91.0609L359.403 89.2382H364.871L366.694 91.0609V92.6424H364.67V91.6774L363.974 91.0073H360.274L359.577 91.6774V93.7415L360.274 94.4116H364.992L366.815 96.2477V99.7994L364.952 101.662H359.336L357.513 99.8397H357.54V99.8531Z" fill="#251F20"/>
<path d="M377.095 89.2516H379.052L383.541 101.676H381.451L380.378 98.7272H375.741L374.682 101.676H372.591L377.108 89.2516H377.095ZM379.909 97.0117L378.073 91.7578H378.033L376.237 97.0117H379.909Z" fill="#251F20"/>
<path d="M384.52 99.6788V91.262L386.53 89.2516H392.468L394.438 91.2217V92.8569H392.374V91.9455L391.435 91.0207H387.602L386.584 92.0125V98.9015L387.602 99.8933H391.435L392.427 98.9149V96.6632H389.707V94.8807H394.424V99.652L392.414 101.662H386.517L384.506 99.652V99.6788H384.52Z" fill="#251F20"/>
<path d="M396.555 89.2516H405.227V91.0073H398.619V94.559H404.704V96.3013H398.619V99.9201H405.227V101.676H396.555V89.2516Z" fill="#251F20"/>
<path d="M407.184 89.2516H409.06L414.917 98.2849H414.957V89.2516H416.927V101.676H415.051L409.194 92.6558H409.154V101.676H407.184V89.2516Z" fill="#251F20"/>
<path d="M419.233 99.6788V91.262L421.243 89.2516H427.073L429.043 91.2217V92.8569H426.979V91.9455L426.041 91.0207H422.315L421.297 92.0125V98.9015L422.315 99.8933H426.041L426.979 98.9685V98.0571H429.043V99.6922L427.073 101.662H421.243L419.233 99.652V99.6788Z" fill="#251F20"/>
<path d="M433.788 96.5694L429.405 89.2516H431.657L434.807 94.6528H434.847L437.996 89.2516H440.248L435.865 96.5694V101.689H433.801V96.5694H433.788Z" fill="#251F20"/>
<path d="M445.783 97.387V95.658L446.869 94.5322H448.678L449.764 95.658V97.387L448.678 98.4994H446.869L445.783 97.387Z" fill="#251F20"/>
<path d="M457.202 89.774H459.199V101.81H457.202V89.774Z" fill="#028493"/>
<path d="M461.692 89.7743H463.515L469.184 98.5262H469.225V89.7743H471.128V101.81H469.305L463.636 93.0713H463.595V101.81H461.692V89.7743Z" fill="#028493"/>
<path d="M473.54 89.7743H481.756V91.4764H475.537V95.1487H480.938V96.8509H475.537V101.796H473.54V89.7609V89.7743Z" fill="#028493"/>
<path d="M492.451 97.9231V101.81H490.454V98.4056L489.221 97.0519H485.308V101.81H483.311V89.7743H490.629L492.384 91.5434V95.2425L491.125 96.5024L492.451 97.9231ZM485.294 95.4034H489.731L490.414 94.7198V92.1599L489.731 91.4764H485.294V95.4168V95.4034Z" fill="#028493"/>
<path d="M498.107 89.7743H499.997L504.353 101.81H502.329L501.297 98.9551H496.807L495.775 101.81H493.751L498.121 89.7743H498.107ZM500.815 97.2931L499.045 92.2001H499.005L497.263 97.2931H500.815Z" fill="#028493"/>
<path d="M505.197 100.041V98.5262H507.154V99.4376L507.811 100.094H511.564L512.247 99.4108V97.1994L511.577 96.5292H507.007L505.237 94.7735V91.5568L507.007 89.7877H512.301L514.07 91.5568V93.0847H512.113V92.16L511.443 91.5032H507.864L507.194 92.16V94.1569L507.864 94.8137H512.435L514.204 96.5828V100.027L512.394 101.837H506.966L505.197 100.068V100.041Z" fill="#028493"/>
<path d="M518.6 91.4764H514.995V89.7743H524.202V91.4764H520.597V101.81H518.6V91.4764Z" fill="#028493"/>
<path d="M534.884 97.9231V101.81H532.887V98.4056L531.654 97.0519H527.741V101.81H525.744V89.7743H533.061L534.817 91.5434V95.2425L533.557 96.5024L534.884 97.9231ZM527.741 95.4034H532.177L532.86 94.7198V92.1599L532.177 91.4764H527.741V95.4168V95.4034Z" fill="#028493"/>
<path d="M537.216 99.7994V89.7743H539.213V99.1293L540.192 100.094H543.73L544.708 99.1293V89.7743H546.705V99.7994L544.695 101.81H539.227L537.216 99.7994Z" fill="#028493"/>
<path d="M548.93 99.8665V91.7176L550.873 89.7743H556.516L558.419 91.6774V93.2589H556.422V92.3878L555.511 91.4898H551.905L550.927 92.4548V99.1293L551.905 100.094H555.511L556.422 99.1963V98.3251H558.419V99.9067L556.516 101.81H550.873L548.93 99.8665Z" fill="#028493"/>
<path d="M562.896 91.4764H559.29V89.7743H568.498V91.4764H564.893V101.81H562.896V91.4764Z" fill="#028493"/>
<path d="M570.039 99.7994V89.7743H572.036V99.1293L573.015 100.094H576.553L577.531 99.1293V89.7743H579.528V99.7994L577.518 101.81H572.05L570.039 99.7994Z" fill="#028493"/>
<path d="M591.081 97.9231V101.81H589.084V98.4056L587.851 97.0519H583.938V101.81H581.941V89.7743H589.259L591.014 91.5434V95.2425L589.755 96.5024L591.081 97.9231ZM583.938 95.4034H588.374L589.058 94.7198V92.1599L588.374 91.4764H583.938V95.4168V95.4034Z" fill="#028493"/>
<path d="M593.4 89.7743H601.79V91.4764H595.397V94.9209H601.294V96.6096H595.397V100.121H601.79V101.823H593.4V89.7877V89.7743Z" fill="#028493"/>
<mask id="mask0_6_307" style="mask-type:luminance" maskUnits="userSpaceOnUse" x="0" y="4" width="67" height="82">
<path d="M33.5312 85.1236H16.6975V82.2286C16.6975 74.8437 12.9447 68.7991 9.12499 62.6339C4.70212 55.5037 0.185425 48.2261 0.185425 38.2411C0.185425 29.0335 3.91136 20.697 9.94255 14.6658C15.9737 8.62123 24.3102 4.88189 33.5178 4.86848C42.7254 4.88189 51.0619 8.62123 57.0931 14.6658C63.1243 20.7104 66.8502 29.0469 66.8502 38.2411C66.8502 48.2261 62.3335 55.5037 57.9106 62.6339C54.0909 68.7991 50.3381 74.8437 50.3381 82.2286V85.1236H33.5044H33.5312Z" fill="white"/>
</mask>
<g mask="url(#mask0_6_307)">
<path d="M68.673 69.2816L62.816 75.1386C59.0901 67.7001 55.3775 59.2296 52.0805 49.754C45.8349 31.848 42.7925 15.4566 41.345 1.91991H43.3018C44.7492 12.0523 47.5236 24.8786 53.0589 39.0184C57.8972 51.3489 63.5666 61.4545 68.673 69.2816Z" fill="white"/>
<path d="M-2.58893 69.2816C-0.632142 71.2384 1.31124 73.1818 3.26803 75.1386C6.99397 67.7001 10.7065 59.2296 14.0035 49.754C20.2492 31.848 23.2916 15.4566 24.7391 1.91991H22.7823C21.3348 12.0523 18.5604 24.8786 13.0252 39.0184C8.1868 51.3489 2.51748 61.4545 -2.58893 69.2816Z" fill="white"/>
<path d="M49.1453 40.9752C44.6152 25.857 42.3904 12.1863 41.3316 0.954912C38.4366 0.861094 35.5282 0.780678 32.6332 0.686859C30.0063 0.780678 27.366 0.861094 24.7391 0.954912C23.6803 12.1863 21.4688 25.857 16.9253 40.9752C12.8911 54.4449 7.95897 65.8773 3.25464 75.1386C5.38566 77.2696 8.28063 79.7357 12.0468 81.9739C18.4934 85.8071 24.6185 87.2412 28.6393 87.8309C30.395 77.0686 31.7889 65.5557 32.6466 53.3727C33.4642 65.5959 34.7911 77.1222 36.453 87.8309C40.7552 87.0535 46.6792 85.4586 53.0455 81.9739C57.0931 79.7491 60.3231 77.3098 62.8026 75.1386C58.0983 65.8773 53.1795 54.4315 49.1319 40.9752H49.1453Z" fill="url(#paint0_linear_6_307)"/>
<path d="M71.5948 25.3611C82.156 47.194 69.4771 68.0083 68.6596 69.295C62.5078 59.9802 55.458 47.2477 50.1103 31.2181C46.4916 20.3619 44.441 10.4038 43.275 1.9333C46.0359 2.72406 63.1243 7.88408 71.5814 25.3611H71.5948Z" fill="url(#paint1_linear_6_307)"/>
<path d="M40.5944 88.2196H24.6721C26.5752 68.129 28.4918 48.0384 30.395 27.9612H34.6972C36.654 48.0518 38.6242 68.1424 40.581 88.2196H40.5944Z" fill="white"/>
<path d="M33.4642 14.4782H31.6549C31.4136 16.9175 31.1858 19.3433 30.9445 21.7826H34.1746C33.9333 19.3567 33.6921 16.9309 33.4642 14.4916V14.4782Z" fill="white"/>
<path d="M-5.02819 25.3611C-15.5895 47.194 -2.91057 68.0083 -2.09301 69.295C4.0588 59.9802 11.1086 47.2477 16.4563 31.2181C20.075 20.3619 22.1256 10.4038 23.2916 1.9333C20.5307 2.72406 3.44228 7.88408 -5.01479 25.3611H-5.02819Z" fill="url(#paint2_linear_6_307)"/>
</g>
<path d="M21.1606 98.3788C19.5791 98.5932 18.1182 97.4942 17.9037 95.9127C17.6893 94.3312 18.7883 92.8703 20.3698 92.6558L47.336 88.8495C48.9175 88.635 50.3784 89.7341 50.5928 91.3156C50.8072 92.8971 49.7082 94.358 48.1267 94.5724L21.1606 98.3788Z" fill="url(#paint3_linear_6_307)"/>
<path d="M21.1606 108.578C19.5791 108.793 18.1182 107.694 17.9037 106.112C17.6893 104.531 18.7883 103.07 20.3698 102.855L47.336 99.0489C48.9175 98.8344 50.3784 99.9335 50.5928 101.515C50.8072 103.096 49.7082 104.557 48.1267 104.772L21.1606 108.578Z" fill="url(#paint4_linear_6_307)"/>
<path fill-rule="evenodd" clip-rule="evenodd" d="M33.7188 118.55C29.3094 118.469 27.1247 117.37 25.6102 112.492H41.8274C40.3263 117.357 38.1283 118.469 33.7188 118.55Z" fill="url(#paint5_linear_6_307)"/>
</g>
</g>
<defs>
<linearGradient id="paint0_linear_6_307" x1="6.84655" y1="11.2884" x2="49.0113" y2="84.3194" gradientUnits="userSpaceOnUse">
<stop stop-color="#00B3EC"/>
<stop offset="0.16" stop-color="#00A6D2"/>
<stop offset="0.55" stop-color="#00899B"/>
<stop offset="0.84" stop-color="#007779"/>
<stop offset="1" stop-color="#00716C"/>
</linearGradient>
<linearGradient id="paint1_linear_6_307" x1="43.275" y1="35.6142" x2="75.7764" y2="35.6142" gradientUnits="userSpaceOnUse">
<stop stop-color="#00B3EC"/>
<stop offset="0.16" stop-color="#00A5D2"/>
<stop offset="0.55" stop-color="#00899B"/>
<stop offset="0.84" stop-color="#007778"/>
<stop offset="1" stop-color="#00716C"/>
</linearGradient>
<linearGradient id="paint2_linear_6_307" x1="23.2916" y1="-872.884" x2="-9.20982" y2="-872.884" gradientUnits="userSpaceOnUse">
<stop stop-color="#00B3EC"/>
<stop offset="0.16" stop-color="#00A5D2"/>
<stop offset="0.55" stop-color="#00899B"/>
<stop offset="0.84" stop-color="#007778"/>
<stop offset="1" stop-color="#00716C"/>
</linearGradient>
<linearGradient id="paint3_linear_6_307" x1="17.8769" y1="93.6074" x2="50.6196" y2="93.6074" gradientUnits="userSpaceOnUse">
<stop stop-color="#00B3EC"/>
<stop offset="0.16" stop-color="#00A6D2"/>
<stop offset="0.55" stop-color="#00899B"/>
<stop offset="0.84" stop-color="#007779"/>
<stop offset="1" stop-color="#00716C"/>
</linearGradient>
<linearGradient id="paint4_linear_6_307" x1="17.8769" y1="103.82" x2="50.6196" y2="103.82" gradientUnits="userSpaceOnUse">
<stop stop-color="#00B3EC"/>
<stop offset="0.16" stop-color="#00A6D2"/>
<stop offset="0.55" stop-color="#00899B"/>
<stop offset="0.84" stop-color="#007779"/>
<stop offset="1" stop-color="#00716C"/>
</linearGradient>
<linearGradient id="paint5_linear_6_307" x1="25.6102" y1="115.521" x2="41.8274" y2="115.521" gradientUnits="userSpaceOnUse">
<stop stop-color="#00B3EC"/>
<stop offset="0.16" stop-color="#00A6D2"/>
<stop offset="0.55" stop-color="#00899B"/>
<stop offset="0.84" stop-color="#007779"/>
<stop offset="1" stop-color="#00716C"/>
</linearGradient>
<clipPath id="clip0_6_307">
<rect width="608" height="118" fill="white" transform="translate(0.185425 0.693237)"/>
</clipPath>
<clipPath id="clip1_6_307">
<rect width="611" height="117.863" fill="white" transform="translate(0.185425 0.686859)"/>
</clipPath>
</defs>
</svg>
