<svg width="535" height="50" viewBox="0 0 535 50" fill="none" xmlns="http://www.w3.org/2000/svg">
<g clip-path="url(#clip0_194_265)">
<path d="M38.4855 11.1082L28.9332 37.7171H33.203L35.5748 30.8813H45.3051L47.677 37.7171H51.9468L42.3969 11.1082H38.4855ZM44.0543 27.2036H36.8594L40.4412 16.8165L44.0543 27.2036Z" fill="white"/>
<path d="M73.2885 23.3424V14.8144L69.548 11.1082H54.0276V37.7171H58.1025V27.0845H66.2259L69.3579 30.3498V37.7171H73.4329V29.0794L70.5823 26.0214L73.2885 23.34V23.3424ZM58.1025 14.7858H67.8088L69.2473 16.1849V22.0101L67.8088 23.4092H58.1025V14.7882V14.7858Z" fill="white"/>
<path d="M97.0526 14.8144L93.312 11.1082H77.7916V37.7171H81.8666V27.2275H93.2759L97.0526 23.4854V14.8144ZM81.8666 14.7858H91.5728L93.0113 16.1849V22.1531L91.5728 23.5522H81.8666V14.7858Z" fill="white"/>
<path d="M104.849 11.1082L95.2966 37.7171H99.5664L101.938 30.8813H111.669L114.04 37.7171H118.31L108.758 11.1082H104.846H104.849ZM110.418 27.2036H103.223L106.805 16.8165L110.418 27.2036Z" fill="white"/>
<path d="M135.5 10.946H131.425V37.5549H135.5V10.946Z" fill="white"/>
<path d="M121.368 21.5144L119.689 23.2329V25.7808L121.368 27.4993H124.067L125.746 25.7808V23.2329L124.067 21.5144H121.368Z" fill="white"/>
<path d="M18.7194 23.8499C16.9177 17.9008 16.0396 12.5214 15.6187 8.10243C14.4664 8.06668 13.3166 8.03331 12.1644 7.99756C11.118 8.03331 10.074 8.06668 9.02756 8.10243C8.60659 12.5214 7.72617 17.9008 5.92685 23.8499C4.32237 29.1483 2.36668 33.6483 0.5 37.2926C1.34674 38.1292 2.49417 39.1017 3.988 39.9812C5.83544 41.0704 7.61311 41.6639 9.06364 41.9999C9.84303 35.9102 10.6224 29.8181 11.4018 23.7284H13.23C14.0238 29.768 14.8176 35.8101 15.6115 41.8498C16.997 41.4708 18.5967 40.8916 20.2733 39.9812C21.8802 39.1088 23.1648 38.1483 24.1486 37.2926C22.282 33.6483 20.3263 29.146 18.7218 23.8499H18.7194ZM11.3705 20.7681C11.5076 19.3547 11.6472 17.9413 11.7843 16.5279C12.1379 16.5279 12.4891 16.5303 12.8427 16.5327C12.9822 17.9461 13.1217 19.3595 13.2637 20.7729C12.6334 20.7729 12.0008 20.7705 11.3705 20.7681Z" fill="white"/>
</g>
<line x1="158" y1="0.193359" x2="158" y2="49.8069" stroke="white"/>
<g clip-path="url(#clip1_194_265)">
<path d="M236.929 16.4319V25.3359C236.929 26.3439 237.094 27.2679 237.508 27.9399C238.087 28.9479 239.08 29.5359 240.404 29.5359C242.059 29.5359 243.135 28.9479 243.797 27.8559C244.128 27.2679 244.294 26.4279 244.294 25.3359V16.4319H246.28V24.5799C246.28 26.3439 246.031 27.6879 245.535 28.6959C244.625 30.4599 243.052 31.2999 240.57 31.2999C238.17 31.2999 236.515 30.4599 235.688 28.6959C235.191 27.7719 234.943 26.3439 234.943 24.5799V16.4319H236.929Z" fill="white"/>
<path d="M249.341 28.696H251.328V30.88H249.341V28.696Z" fill="white"/>
<path d="M255.961 26.1759C256.044 27.0159 256.21 27.6879 256.541 28.1919C257.12 29.1159 258.279 29.6199 259.768 29.6199C260.43 29.6199 261.092 29.5359 261.671 29.2839C262.747 28.8639 263.326 28.1079 263.326 27.0999C263.326 26.3439 263.078 25.7559 262.582 25.4199C262.085 25.0839 261.34 24.8319 260.347 24.5799L258.527 24.1599C257.286 23.9079 256.458 23.5719 255.961 23.2359C255.051 22.6479 254.637 21.7239 254.637 20.5479C254.637 19.2879 255.051 18.1959 255.961 17.3559C256.789 16.5159 258.03 16.0959 259.603 16.0959C261.092 16.0959 262.251 16.4319 263.326 17.1879C264.319 17.9439 264.816 19.1199 264.816 20.7159H262.995C262.913 19.9599 262.664 19.3719 262.416 18.9519C261.837 18.1959 260.927 17.8599 259.52 17.8599C258.444 17.8599 257.617 18.1119 257.203 18.6159C256.706 19.1199 256.458 19.6239 256.458 20.2959C256.458 20.9679 256.706 21.5559 257.286 21.8919C257.617 22.0599 258.527 22.3959 259.768 22.6479L261.671 23.1519C262.582 23.4039 263.326 23.6559 263.823 24.0759C264.733 24.7479 265.147 25.7559 265.147 27.0159C265.147 28.6119 264.568 29.7879 263.492 30.4599C262.333 31.1319 261.092 31.4679 259.603 31.4679C257.865 31.4679 256.541 31.0479 255.548 30.1239C254.555 29.1999 254.058 27.9399 254.141 26.4279H255.961V26.1759Z" fill="white"/>
<path d="M268.126 28.696H270.112V30.88H268.126V28.696Z" fill="white"/>
<path d="M279.049 16.4319H284.759C286.662 16.4319 288.152 17.1039 289.227 18.5319C290.138 19.7919 290.634 21.4719 290.634 23.4039C290.634 24.9159 290.386 26.3439 289.807 27.6039C288.814 29.7879 287.159 30.8799 284.676 30.8799H278.966V16.4319H279.049ZM284.345 29.1999C285.007 29.1999 285.503 29.1159 285.917 29.0319C286.662 28.7799 287.241 28.2759 287.738 27.5199C288.152 26.9319 288.4 26.1759 288.565 25.2519C288.648 24.7479 288.731 24.2439 288.731 23.7399C288.731 21.9759 288.4 20.5479 287.738 19.5399C287.076 18.5319 285.917 18.0279 284.428 18.0279H281.118V29.1999H284.345Z" fill="white"/>
<path d="M299.488 20.6319C300.15 20.9679 300.73 21.4719 301.061 21.9759C301.392 22.4799 301.64 23.1519 301.723 23.8239C301.805 24.3279 301.888 25.0839 301.888 26.1759H294.358C294.358 27.2679 294.606 28.1079 295.103 28.7799C295.599 29.4519 296.261 29.7879 297.254 29.7879C298.164 29.7879 298.909 29.4519 299.406 28.8639C299.737 28.5279 299.902 28.1079 300.068 27.6039H301.805C301.723 28.0239 301.64 28.4439 301.392 28.8639C301.143 29.2839 300.812 29.7039 300.564 30.0399C300.068 30.5439 299.406 30.8799 298.578 31.1319C298.164 31.2159 297.668 31.2999 297.171 31.2999C295.847 31.2999 294.772 30.7959 293.944 29.8719C293.117 28.9479 292.62 27.6039 292.62 25.8399C292.62 24.1599 293.034 22.7319 293.944 21.7239C294.854 20.7159 296.013 20.1279 297.502 20.1279C298.082 20.1279 298.826 20.2959 299.488 20.6319ZM300.068 24.7479C299.985 23.9919 299.819 23.4039 299.571 22.8999C299.075 22.0599 298.33 21.6399 297.171 21.6399C296.344 21.6399 295.682 21.8919 295.185 22.4799C294.689 23.0679 294.358 23.8239 294.358 24.7479H300.068Z" fill="white"/>
<path d="M303.957 20.3799H305.695V21.8079C306.026 21.3039 306.439 20.9679 306.853 20.7159C307.432 20.2959 308.177 20.1279 308.922 20.1279C310.08 20.1279 311.073 20.5479 311.901 21.4719C312.728 22.3959 313.142 23.6559 313.142 25.4199C313.142 27.6879 312.563 29.3679 311.322 30.3759C310.577 30.9639 309.667 31.2999 308.674 31.2999C307.929 31.2999 307.267 31.1319 306.688 30.7959C306.357 30.6279 306.026 30.2919 305.612 29.7879V35.0799H303.874V20.3799H303.957ZM310.494 28.6119C311.073 27.9399 311.322 26.8479 311.322 25.5039C311.322 24.6639 311.239 23.9079 310.991 23.3199C310.577 22.1439 309.667 21.5559 308.508 21.5559C307.267 21.5559 306.439 22.1439 306.026 23.4039C305.777 24.0759 305.695 24.9159 305.695 25.9239C305.695 26.7639 305.777 27.4359 306.026 28.0239C306.439 29.1159 307.35 29.6199 308.508 29.6199C309.336 29.7039 309.998 29.3679 310.494 28.6119Z" fill="white"/>
<path d="M320.755 24.4959C321.169 24.4119 321.417 24.2439 321.583 23.9919C321.666 23.8239 321.666 23.5719 321.666 23.3199C321.666 22.7319 321.417 22.3119 321.003 21.9759C320.59 21.6399 320.01 21.5559 319.183 21.5559C318.273 21.5559 317.611 21.8079 317.28 22.3119C317.031 22.5639 316.949 22.9839 316.866 23.5719H315.211C315.211 22.2279 315.625 21.3879 316.452 20.8839C317.28 20.3799 318.19 20.1279 319.266 20.1279C320.507 20.1279 321.5 20.3799 322.245 20.7999C322.99 21.3039 323.403 21.9759 323.403 22.9839V29.0319C323.403 29.1999 323.403 29.3679 323.486 29.4519C323.569 29.5359 323.734 29.6199 323.983 29.6199H324.231C324.231 29.6199 324.396 29.6199 324.562 29.5359V30.8799C324.314 30.9639 324.065 31.0479 323.9 31.0479C323.734 31.0479 323.569 31.0479 323.321 31.0479C322.741 31.0479 322.245 30.7959 321.997 30.3759C321.831 30.1239 321.748 29.7879 321.666 29.3679C321.335 29.8719 320.838 30.2919 320.093 30.6279C319.348 30.9639 318.686 31.1319 317.859 31.1319C316.866 31.1319 316.121 30.7959 315.459 30.2079C314.797 29.6199 314.549 28.8639 314.549 27.9399C314.549 26.9319 314.88 26.1759 315.459 25.6719C316.038 25.1679 316.866 24.8319 317.859 24.6639L320.755 24.4959ZM317.031 29.2839C317.362 29.6199 317.859 29.7039 318.355 29.7039C318.935 29.7039 319.597 29.5359 320.176 29.2839C321.169 28.7799 321.666 28.0239 321.666 26.9319V25.5039C321.417 25.6719 321.169 25.7559 320.838 25.8399C320.507 25.9239 320.176 26.0079 319.845 26.0079L318.769 26.1759C318.107 26.2599 317.693 26.4279 317.362 26.5959C316.783 26.9319 316.535 27.4359 316.535 28.1079C316.452 28.6119 316.7 28.9479 317.031 29.2839Z" fill="white"/>
<path d="M326.217 20.2959H327.872V22.1439C328.037 21.8079 328.368 21.3879 328.865 20.8839C329.361 20.3799 330.023 20.1279 330.685 20.1279H330.851C330.851 20.1279 331.099 20.1279 331.265 20.1279V21.9759H331.016C331.016 21.9759 330.851 21.9759 330.768 21.9759C329.858 21.9759 329.196 22.2279 328.782 22.8159C328.368 23.4039 328.037 24.0759 328.037 24.8319V30.8799H326.3V20.2959H326.217Z" fill="white"/>
<path d="M333.168 17.356H334.906V20.296H336.561V21.724H334.906V28.612C334.906 28.948 334.988 29.2 335.237 29.368C335.402 29.452 335.568 29.452 335.899 29.452H336.147C336.147 29.452 336.395 29.452 336.478 29.452V30.88C336.312 30.964 336.064 30.964 335.816 31.048C335.568 31.132 335.402 31.048 335.154 31.048C334.326 31.048 333.747 30.796 333.499 30.376C333.251 29.956 333.085 29.368 333.085 28.696V21.724H331.761V20.296H333.168V17.356Z" fill="white"/>
<path d="M338.298 20.2959H340.036V21.8079C340.45 21.3039 340.864 20.8839 341.195 20.7159C341.774 20.2959 342.436 20.1279 343.181 20.1279C344.008 20.1279 344.67 20.2959 345.167 20.7159C345.415 20.9679 345.746 21.3039 345.911 21.7239C346.325 21.1359 346.739 20.7159 347.318 20.4639C347.897 20.2119 348.394 20.0439 349.056 20.0439C350.463 20.0439 351.373 20.5479 351.869 21.5559C352.118 22.1439 352.283 22.8159 352.283 23.7399V30.8799H350.463V23.5719C350.463 22.8999 350.297 22.3959 349.966 22.1439C349.635 21.8919 349.221 21.7239 348.725 21.7239C348.063 21.7239 347.484 21.9759 346.987 22.3959C346.491 22.8159 346.242 23.6559 346.242 24.7479V30.8799H344.505V23.9919C344.505 23.2359 344.422 22.7319 344.256 22.3959C344.008 21.8919 343.512 21.6399 342.767 21.6399C342.105 21.6399 341.526 21.8919 340.946 22.3959C340.367 22.8999 340.119 23.8239 340.119 25.2519V30.8799H338.381V20.2959H338.298Z" fill="white"/>
<path d="M361.303 20.6319C361.965 20.9679 362.544 21.4719 362.875 21.9759C363.206 22.4799 363.455 23.1519 363.537 23.8239C363.62 24.3279 363.703 25.0839 363.703 26.1759H356.172C356.172 27.2679 356.421 28.1079 356.917 28.7799C357.414 29.4519 358.076 29.7879 359.069 29.7879C359.979 29.7879 360.724 29.4519 361.22 28.8639C361.551 28.5279 361.717 28.1079 361.882 27.6039H363.62C363.537 28.0239 363.455 28.4439 363.206 28.8639C362.958 29.2839 362.627 29.7039 362.379 30.0399C361.882 30.5439 361.22 30.8799 360.393 31.1319C359.979 31.2159 359.482 31.2999 358.986 31.2999C357.662 31.2999 356.586 30.7959 355.759 29.8719C354.931 28.9479 354.435 27.6039 354.435 25.8399C354.435 24.1599 354.848 22.7319 355.759 21.7239C356.669 20.7159 357.827 20.1279 359.317 20.1279C359.896 20.1279 360.558 20.2959 361.303 20.6319ZM361.882 24.7479C361.799 23.9919 361.634 23.4039 361.386 22.8999C360.889 22.0599 360.144 21.6399 358.986 21.6399C358.158 21.6399 357.496 21.8919 357 22.4799C356.421 23.0679 356.172 23.8239 356.172 24.7479H361.882Z" fill="white"/>
<path d="M365.937 20.2959H367.592V21.8079C368.089 21.2199 368.585 20.7159 369.164 20.4639C369.744 20.2119 370.323 20.0439 370.985 20.0439C372.474 20.0439 373.467 20.5479 373.964 21.6399C374.212 22.2279 374.378 23.0679 374.378 24.0759V30.8799H372.64V24.2439C372.64 23.5719 372.557 23.0679 372.392 22.6479C372.061 21.9759 371.481 21.6399 370.737 21.6399C370.323 21.6399 369.992 21.7239 369.744 21.8079C369.247 21.9759 368.833 22.2279 368.502 22.6479C368.171 22.9839 368.006 23.3199 367.923 23.7399C367.84 24.1599 367.758 24.6639 367.758 25.3359V30.8799H366.02V20.2959H365.937Z" fill="white"/>
<path d="M377.274 17.356H379.012V20.296H380.667V21.724H379.012V28.612C379.012 28.948 379.094 29.2 379.343 29.368C379.508 29.452 379.674 29.452 380.005 29.452H380.253C380.253 29.452 380.501 29.452 380.584 29.452V30.88C380.418 30.964 380.17 30.964 379.922 31.048C379.674 31.132 379.508 31.048 379.26 31.048C378.432 31.048 377.853 30.796 377.605 30.376C377.357 29.956 377.191 29.368 377.191 28.696V21.724H375.784V20.296H377.191V17.356H377.274Z" fill="white"/>
<path d="M395.562 21.3879C396.472 22.3119 396.969 23.6559 396.969 25.4199C396.969 27.0999 396.555 28.5279 395.727 29.6199C394.9 30.7119 393.658 31.2999 392.003 31.2999C390.597 31.2999 389.438 30.7959 388.611 29.7879C387.783 28.7799 387.369 27.5199 387.369 25.8399C387.369 24.0759 387.783 22.6479 388.693 21.6399C389.604 20.6319 390.762 20.0439 392.252 20.0439C393.493 20.0439 394.569 20.4639 395.562 21.3879ZM394.403 28.3599C394.817 27.4359 395.065 26.5119 395.065 25.4199C395.065 24.4119 394.9 23.6559 394.569 22.9839C394.072 21.9759 393.245 21.5559 392.086 21.5559C391.01 21.5559 390.266 21.9759 389.769 22.8159C389.273 23.6559 389.024 24.6639 389.024 25.8399C389.024 26.9319 389.273 27.8559 389.769 28.6119C390.266 29.3679 391.01 29.7039 392.086 29.7039C393.245 29.7039 393.99 29.2839 394.403 28.3599Z" fill="white"/>
<path d="M399.865 17.1039C400.279 16.5159 401.023 16.1799 402.182 16.1799H402.513C402.513 16.1799 402.761 16.1799 402.927 16.1799V17.7759H402.513H402.265C401.768 17.7759 401.437 17.9439 401.272 18.1959C401.106 18.4479 401.106 19.2039 401.106 20.2959H402.844V21.7239H401.106V30.8799H399.368V21.8079H397.962V20.3799H399.368V18.6999C399.534 18.0279 399.617 17.4399 399.865 17.1039Z" fill="white"/>
<path d="M420.304 16.4319V18.1959H415.505V30.8799H413.519V18.1119H408.719V16.3479H420.304V16.4319Z" fill="white"/>
<path d="M421.214 20.2959H422.869V22.1439C423.035 21.8079 423.366 21.3879 423.862 20.8839C424.359 20.3799 425.021 20.1279 425.683 20.1279H425.849C425.849 20.1279 426.097 20.1279 426.262 20.1279V21.9759H426.014C426.014 21.9759 425.849 21.9759 425.766 21.9759C424.856 21.9759 424.194 22.2279 423.78 22.8159C423.366 23.4039 423.035 24.0759 423.035 24.8319V30.8799H421.297V20.2959H421.214Z" fill="white"/>
<path d="M433.296 24.4959C433.71 24.4119 433.958 24.2439 434.124 23.9919C434.206 23.8239 434.206 23.5719 434.206 23.3199C434.206 22.7319 433.958 22.3119 433.544 21.9759C433.131 21.7239 432.551 21.5559 431.724 21.5559C430.813 21.5559 430.151 21.8079 429.82 22.3119C429.572 22.5639 429.489 22.9839 429.407 23.5719H427.752C427.752 22.2279 428.165 21.3879 428.993 20.8839C429.82 20.3799 430.731 20.1279 431.806 20.1279C433.048 20.1279 434.041 20.3799 434.786 20.7999C435.53 21.3039 435.944 21.9759 435.944 22.9839V29.0319C435.944 29.1999 435.944 29.3679 436.027 29.4519C436.11 29.5359 436.275 29.6199 436.523 29.6199H436.772C436.772 29.6199 436.937 29.6199 437.103 29.5359V30.8799C436.854 30.9639 436.606 31.0479 436.441 31.0479C436.275 31.0479 436.11 31.0479 435.861 31.0479C435.282 31.0479 434.786 30.7959 434.537 30.3759C434.372 30.1239 434.289 29.7879 434.206 29.3679C433.875 29.8719 433.379 30.2919 432.634 30.6279C431.889 30.9639 431.227 31.1319 430.4 31.1319C429.407 31.1319 428.662 30.7959 428 30.2079C427.338 29.6199 427.09 28.8639 427.09 27.9399C427.09 26.9319 427.421 26.1759 428 25.6719C428.579 25.1679 429.407 24.8319 430.4 24.6639L433.296 24.4959ZM429.655 29.2839C429.986 29.6199 430.482 29.7039 430.979 29.7039C431.558 29.7039 432.22 29.5359 432.8 29.2839C433.793 28.7799 434.289 28.0239 434.289 26.9319V25.5039C434.041 25.6719 433.793 25.7559 433.462 25.8399C433.13 25.9239 432.8 26.0079 432.469 26.0079L431.393 26.1759C430.731 26.2599 430.317 26.4279 429.986 26.5959C429.407 26.9319 429.158 27.4359 429.158 28.1079C429.076 28.6119 429.241 28.9479 429.655 29.2839Z" fill="white"/>
<path d="M438.758 20.2959H440.413V21.8079C440.909 21.2199 441.406 20.7159 441.985 20.4639C442.564 20.2119 443.143 20.0439 443.805 20.0439C445.295 20.0439 446.288 20.5479 446.784 21.6399C447.033 22.2279 447.198 23.0679 447.198 24.0759V30.8799H445.46V24.2439C445.46 23.5719 445.378 23.0679 445.212 22.6479C444.881 21.9759 444.302 21.6399 443.557 21.6399C443.143 21.6399 442.812 21.7239 442.564 21.8079C442.068 21.9759 441.654 22.2279 441.323 22.6479C440.992 22.9839 440.826 23.3199 440.744 23.7399C440.661 24.1599 440.578 24.6639 440.578 25.3359V30.8799H438.84V20.2959H438.758Z" fill="white"/>
<path d="M450.839 27.6039C450.922 28.1919 451.005 28.6119 451.253 28.9479C451.667 29.5359 452.494 29.7879 453.57 29.7879C454.232 29.7879 454.811 29.6199 455.308 29.3679C455.804 29.1159 456.052 28.6119 456.052 28.0239C456.052 27.6039 455.887 27.2679 455.473 27.0159C455.225 26.8479 454.728 26.6799 453.984 26.5119L452.577 26.1759C451.667 25.9239 451.005 25.6719 450.591 25.4199C449.846 24.9159 449.432 24.2439 449.432 23.4039C449.432 22.3959 449.763 21.6399 450.508 20.9679C451.253 20.3799 452.163 20.0439 453.404 20.0439C454.977 20.0439 456.135 20.5479 456.797 21.4719C457.211 22.0599 457.459 22.7319 457.459 23.4039H455.804C455.804 22.9839 455.639 22.6479 455.39 22.3119C454.977 21.8079 454.232 21.6399 453.239 21.6399C452.577 21.6399 452.08 21.8079 451.667 22.0599C451.253 22.3119 451.17 22.6479 451.17 23.0679C451.17 23.4879 451.418 23.9079 451.832 24.1599C452.08 24.3279 452.494 24.4959 452.991 24.5799L454.149 24.8319C455.39 25.1679 456.301 25.4199 456.714 25.7559C457.376 26.1759 457.707 26.9319 457.707 27.8559C457.707 28.7799 457.376 29.6199 456.632 30.2919C455.887 30.9639 454.811 31.2999 453.404 31.2999C451.832 31.2999 450.756 30.9639 450.094 30.2079C449.432 29.4519 449.101 28.6119 449.019 27.6039H450.839Z" fill="white"/>
<path d="M459.611 20.3799H461.348V21.8079C461.679 21.3039 462.093 20.9679 462.507 20.7159C463.086 20.2959 463.831 20.1279 464.576 20.1279C465.734 20.1279 466.727 20.5479 467.555 21.4719C468.382 22.3959 468.796 23.6559 468.796 25.4199C468.796 27.6879 468.217 29.3679 466.976 30.3759C466.231 30.9639 465.321 31.2999 464.328 31.2999C463.583 31.2999 462.921 31.1319 462.341 30.7959C462.01 30.6279 461.679 30.2919 461.266 29.7879V35.0799H459.528V20.3799H459.611ZM466.148 28.6119C466.727 27.9399 466.976 26.8479 466.976 25.5039C466.976 24.6639 466.893 23.9079 466.645 23.3199C466.231 22.1439 465.32 21.5559 464.162 21.5559C462.921 21.5559 462.093 22.1439 461.679 23.4039C461.431 24.0759 461.348 24.9159 461.348 25.9239C461.348 26.7639 461.431 27.4359 461.679 28.0239C462.093 29.1159 463.003 29.6199 464.162 29.6199C464.989 29.7039 465.651 29.3679 466.148 28.6119Z" fill="white"/>
<path d="M478.312 21.3879C479.223 22.3119 479.719 23.6559 479.719 25.4199C479.719 27.0999 479.305 28.5279 478.478 29.6199C477.65 30.7119 476.409 31.2999 474.754 31.2999C473.347 31.2999 472.189 30.7959 471.361 29.7879C470.534 28.7799 470.12 27.5199 470.12 25.8399C470.12 24.0759 470.534 22.6479 471.444 21.6399C472.354 20.6319 473.513 20.0439 475.002 20.0439C476.326 20.0439 477.402 20.4639 478.312 21.3879ZM477.237 28.3599C477.65 27.4359 477.899 26.5119 477.899 25.4199C477.899 24.4119 477.733 23.6559 477.402 22.9839C476.906 21.9759 476.078 21.5559 474.92 21.5559C473.844 21.5559 473.099 21.9759 472.603 22.8159C472.106 23.6559 471.858 24.6639 471.858 25.8399C471.858 26.9319 472.106 27.8559 472.603 28.6119C473.099 29.3679 473.844 29.7039 474.92 29.7039C476.078 29.7039 476.823 29.2839 477.237 28.3599Z" fill="white"/>
<path d="M481.871 20.2959H483.526V22.1439C483.691 21.8079 484.022 21.3879 484.519 20.8839C485.015 20.3799 485.677 20.1279 486.339 20.1279H486.505C486.505 20.1279 486.753 20.1279 486.918 20.1279V21.9759H486.67C486.67 21.9759 486.505 21.9759 486.422 21.9759C485.512 21.9759 484.85 22.2279 484.436 22.8159C484.022 23.4039 483.691 24.0759 483.691 24.8319V30.8799H481.953V20.2959H481.871Z" fill="white"/>
<path d="M488.822 17.356H490.559V20.296H492.214V21.724H490.559V28.612C490.559 28.948 490.642 29.2 490.89 29.368C491.056 29.452 491.221 29.452 491.552 29.452H491.801C491.801 29.452 492.049 29.452 492.132 29.452V30.88C491.966 30.964 491.718 30.964 491.47 31.048C491.221 31.132 491.056 31.048 490.808 31.048C489.98 31.048 489.401 30.796 489.153 30.376C488.904 29.956 488.739 29.368 488.739 28.696V21.724H487.332V20.296H488.739V17.356H488.822Z" fill="white"/>
<path d="M499.579 24.4959C499.993 24.4119 500.241 24.2439 500.407 23.9919C500.489 23.8239 500.489 23.5719 500.489 23.3199C500.489 22.7319 500.241 22.3119 499.827 21.9759C499.414 21.7239 498.834 21.5559 498.007 21.5559C497.097 21.5559 496.435 21.8079 496.104 22.3119C495.855 22.5639 495.773 22.9839 495.69 23.5719H494.035C494.035 22.2279 494.449 21.3879 495.276 20.8839C496.104 20.3799 497.014 20.1279 498.09 20.1279C499.331 20.1279 500.324 20.3799 501.069 20.7999C501.814 21.3039 502.227 21.9759 502.227 22.9839V29.0319C502.227 29.1999 502.227 29.3679 502.31 29.4519C502.393 29.5359 502.558 29.6199 502.807 29.6199H503.055C503.055 29.6199 503.22 29.6199 503.386 29.5359V30.8799C503.137 30.9639 502.889 31.0479 502.724 31.0479C502.558 31.0479 502.393 31.0479 502.144 31.0479C501.565 31.0479 501.069 30.7959 500.82 30.3759C500.655 30.1239 500.572 29.7879 500.489 29.3679C500.158 29.8719 499.662 30.2919 498.917 30.6279C498.172 30.9639 497.51 31.1319 496.683 31.1319C495.69 31.1319 494.945 30.7959 494.283 30.2079C493.621 29.6199 493.373 28.8639 493.373 27.9399C493.373 26.9319 493.704 26.1759 494.283 25.6719C494.862 25.1679 495.69 24.8319 496.683 24.6639L499.579 24.4959ZM495.855 29.2839C496.186 29.6199 496.683 29.7039 497.179 29.7039C497.759 29.7039 498.421 29.5359 499 29.2839C499.993 28.7799 500.489 28.0239 500.489 26.9319V25.5039C500.241 25.6719 499.993 25.7559 499.662 25.8399C499.331 25.9239 499 26.0079 498.669 26.0079L497.593 26.1759C496.931 26.2599 496.517 26.4279 496.186 26.5959C495.607 26.9319 495.359 27.4359 495.359 28.1079C495.359 28.6119 495.524 28.9479 495.855 29.2839Z" fill="white"/>
<path d="M505.372 17.356H507.11V20.296H508.765V21.724H507.11V28.612C507.11 28.948 507.192 29.2 507.441 29.368C507.606 29.452 507.772 29.452 508.103 29.452H508.351C508.351 29.452 508.599 29.452 508.682 29.452V30.88C508.516 30.964 508.268 30.964 508.02 31.048C507.772 31.132 507.606 31.048 507.358 31.048C506.53 31.048 505.951 30.796 505.703 30.376C505.455 29.956 505.289 29.368 505.289 28.696V21.724H503.882V20.296H505.289V17.356H505.372Z" fill="white"/>
<path d="M510.585 16.4319H512.323V18.4479H510.585V16.4319ZM510.585 20.3799H512.323V30.8799H510.585V20.3799Z" fill="white"/>
<path d="M522.501 21.3879C523.411 22.3119 523.908 23.6559 523.908 25.4199C523.908 27.0999 523.494 28.5279 522.667 29.6199C521.839 30.7119 520.598 31.2999 518.943 31.2999C517.536 31.2999 516.378 30.7959 515.55 29.7879C514.723 28.7799 514.309 27.5199 514.309 25.8399C514.309 24.0759 514.723 22.6479 515.633 21.6399C516.543 20.6319 517.702 20.0439 519.191 20.0439C520.432 20.0439 521.591 20.4639 522.501 21.3879ZM521.425 28.3599C521.839 27.4359 522.087 26.5119 522.087 25.4199C522.087 24.4119 521.922 23.6559 521.591 22.9839C521.094 21.9759 520.267 21.5559 519.108 21.5559C518.033 21.5559 517.288 21.9759 516.791 22.8159C516.295 23.6559 516.047 24.6639 516.047 25.8399C516.047 26.9319 516.295 27.8559 516.791 28.6119C517.288 29.3679 518.033 29.7039 519.108 29.7039C520.184 29.7039 521.012 29.2839 521.425 28.3599Z" fill="white"/>
<path d="M525.977 20.2959H527.632V21.8079C528.128 21.2199 528.625 20.7159 529.204 20.4639C529.783 20.2119 530.362 20.0439 531.024 20.0439C532.514 20.0439 533.507 20.5479 534.003 21.6399C534.252 22.2279 534.417 23.0679 534.417 24.0759V30.8799H532.679V24.2439C532.679 23.5719 532.597 23.0679 532.431 22.6479C532.1 21.9759 531.521 21.6399 530.776 21.6399C530.362 21.6399 530.031 21.7239 529.783 21.8079C529.287 21.9759 528.873 22.2279 528.542 22.6479C528.211 22.9839 528.045 23.3199 527.963 23.7399C527.88 24.1599 527.797 24.6639 527.797 25.3359V30.8799H526.059V20.2959H525.977Z" fill="white"/>
<path d="M188.52 42.6399C186.865 41.5479 185.458 40.2879 184.217 38.7759C181.652 35.4999 180.079 31.5519 179.583 27.3519C179.169 19.6239 181.072 13.9119 185.458 9.87993C188.272 7.27593 191.664 6.60393 194.726 8.36793C199.112 10.8039 199.939 17.2719 196.464 20.8839C192.657 24.8319 187.279 23.1519 185.789 31.4679C184.796 36.9279 188.52 42.6399 188.52 42.6399Z" fill="white"/>
<path d="M220.379 26.8479C220.379 26.8479 221.041 31.7199 216.572 38.1039C214.255 41.0439 211.193 43.3119 207.718 44.6559C203.58 46.2519 198.119 47.0079 192.906 43.3119C189.347 40.7919 189.761 36.0879 190.671 34.1559C191.664 31.9719 193.65 30.4599 196.05 30.0399C198.367 29.6199 200.767 30.3759 202.422 32.1399C202.753 32.4759 207.139 36.1719 211.525 35.1639C217.565 33.8199 220.379 26.8479 220.379 26.8479Z" fill="white"/>
<path d="M191.664 6.52C191.664 6.52 194.561 4.252 200.519 4C204.077 4.084 207.47 5.008 210.614 6.604C214.173 8.62 218.807 13.408 219.717 19.036C220.296 22.48 219.469 26.176 216.076 28.108C211.607 30.964 204.491 27.184 205.318 20.968C206.063 15.844 205.815 12.064 202.505 9.124C197.788 5.008 191.664 6.52 191.664 6.52Z" fill="white"/>
</g>
<defs>
<clipPath id="clip0_194_265">
<rect width="135" height="34" fill="white" transform="translate(0.5 8)"/>
</clipPath>
<clipPath id="clip1_194_265">
<rect width="355" height="42" fill="white" transform="translate(179.5 4)"/>
</clipPath>
</defs>
</svg>
