<svg width="182" height="51" viewBox="0 0 182 51" fill="none" xmlns="http://www.w3.org/2000/svg">
<g clip-path="url(#clip0_30_354)">
<path d="M51.4288 5.22852L38.6216 44.0568H44.3463L47.5263 34.0819H60.5721L63.7521 44.0568H69.4768L56.6729 5.22852H51.4288ZM58.895 28.7154H49.2485L54.0508 13.5583L58.895 28.7154Z" fill="white"/>
<path d="M98.0906 23.081V10.6368L93.0754 5.22852H72.2666V44.0568H77.73V28.5415H88.6215L92.8206 33.3063V44.0568H98.2841V31.4526L94.4622 26.9903L98.0906 23.0776V23.081ZM77.73 10.5951H90.7436L92.6723 12.6366V21.1368L90.7436 23.1784H77.73V10.5985V10.5951Z" fill="white"/>
<path d="M129.952 10.6368L124.937 5.22852H104.128V44.0568H109.592V28.7502H124.889L129.952 23.2897V10.6368ZM109.592 10.5951H122.605L124.534 12.6366V21.3455L122.605 23.3871H109.592V10.5951Z" fill="white"/>
<path d="M140.405 5.22852L127.598 44.0568H133.322L136.502 34.0819H149.548L152.728 44.0568H158.453L145.646 5.22852H140.402H140.405ZM147.871 28.7154H138.225L143.027 13.5583L147.871 28.7154Z" fill="white"/>
<path d="M181.5 4.992H176.037V43.8203H181.5V4.992Z" fill="white"/>
<path d="M162.552 20.4134L160.301 22.921V26.639L162.552 29.1466H166.171L168.422 26.639V22.921L166.171 20.4134H162.552Z" fill="white"/>
<path d="M24.9275 23.8219C22.5118 15.1408 21.3346 7.29098 20.7702 0.84279C19.2254 0.79062 17.6837 0.741928 16.1389 0.689758C14.7359 0.741928 13.3362 0.79062 11.9332 0.84279C11.3688 7.29098 10.1884 15.1408 7.77599 23.8219C5.6248 31.5534 3.00274 38.1199 0.5 43.4377C1.63526 44.6585 3.17367 46.0775 5.1765 47.3609C7.65344 48.9503 10.0368 49.8164 11.9816 50.3068C13.0266 41.4205 14.0715 32.5308 15.1165 23.6445H17.5676C18.6319 32.4577 19.6962 41.2744 20.7605 50.0877C22.6182 49.5346 24.763 48.6895 27.0109 47.3609C29.1653 46.088 30.8876 44.6863 32.2067 43.4377C29.704 38.1199 27.0819 31.55 24.9307 23.8219H24.9275ZM15.0746 19.3248C15.2584 17.2624 15.4455 15.1999 15.6293 13.1375C16.1034 13.1375 16.5743 13.141 17.0484 13.1444C17.2354 15.2069 17.4225 17.2693 17.6128 19.3318C16.7678 19.3318 15.9196 19.3283 15.0746 19.3248Z" fill="white"/>
</g>
<defs>
<clipPath id="clip0_30_354">
<rect width="181" height="49.6135" fill="white" transform="translate(0.5 0.693237)"/>
</clipPath>
</defs>
</svg>
