<svg width="430" height="51" viewBox="0 0 430 51" fill="none" xmlns="http://www.w3.org/2000/svg">
<g clip-path="url(#clip0_30_307)">
<path d="M69.9 15.3788V25.8969C69.9 27.0876 70.1 28.1791 70.6 28.973C71.3 30.1637 72.5 30.8583 74.1 30.8583C76.1 30.8583 77.4 30.1637 78.2 28.8737C78.6 28.1791 78.8 27.1869 78.8 25.8969V15.3788H81.2V25.0039C81.2 27.0876 80.9 28.6753 80.3 29.866C79.2 31.9498 77.3 32.942 74.3 32.942C71.4 32.942 69.4 31.9498 68.4 29.866C67.8 28.7745 67.5 27.0876 67.5 25.0039V15.3788H69.9Z" fill="white"/>
<path d="M84.9 29.866H87.3V32.4459H84.9V29.866Z" fill="white"/>
<path d="M92.9 26.8892C93 27.8815 93.2 28.6753 93.6 29.2706C94.3 30.3621 95.7 30.9575 97.5 30.9575C98.3 30.9575 99.1 30.8583 99.8 30.5606C101.1 30.0644 101.8 29.1714 101.8 27.9807C101.8 27.0876 101.5 26.393 100.9 25.9961C100.3 25.5992 99.4 25.3015 98.2 25.0039L96 24.5077C94.5 24.21 93.5 23.8131 92.9 23.4162C91.8 22.7216 91.3 21.6301 91.3 20.241C91.3 18.7526 91.8 17.4626 92.9 16.4703C93.9 15.4781 95.4 14.9819 97.3 14.9819C99.1 14.9819 100.5 15.3788 101.8 16.2719C103 17.1649 103.6 18.5541 103.6 20.4394H101.4C101.3 19.5464 101 18.8518 100.7 18.3557C100 17.4626 98.9 17.0657 97.2 17.0657C95.9 17.0657 94.9 17.3634 94.4 17.9587C93.8 18.5541 93.5 19.1495 93.5 19.9433C93.5 20.7371 93.8 21.4317 94.5 21.8286C94.9 22.0271 96 22.424 97.5 22.7216L99.8 23.317C100.9 23.6147 101.8 23.9124 102.4 24.4085C103.5 25.2023 104 26.393 104 27.8815C104 29.7668 103.3 31.1559 102 31.9498C100.6 32.7436 99.1 33.1405 97.3 33.1405C95.2 33.1405 93.6 32.6444 92.4 31.5529C91.2 30.4614 90.6 28.9729 90.7 27.1869H92.9V26.8892Z" fill="white"/>
<path d="M107.6 29.866H110V32.4459H107.6V29.866Z" fill="white"/>
<path d="M120.8 15.3788H127.7C130 15.3788 131.8 16.1727 133.1 17.8595C134.2 19.3479 134.8 21.3325 134.8 23.6147C134.8 25.4008 134.5 27.0876 133.8 28.576C132.6 31.1559 130.6 32.4459 127.6 32.4459H120.7V15.3788H120.8ZM127.2 30.4614C128 30.4614 128.6 30.3621 129.1 30.2629C130 29.9652 130.7 29.3699 131.3 28.4768C131.8 27.7822 132.1 26.8892 132.3 25.7977C132.4 25.2023 132.5 24.607 132.5 24.0116C132.5 21.9278 132.1 20.241 131.3 19.0502C130.5 17.8595 129.1 17.2642 127.3 17.2642H123.3V30.4614H127.2Z" fill="white"/>
<path d="M145.5 20.3402C146.3 20.7371 147 21.3324 147.4 21.9278C147.8 22.5232 148.1 23.317 148.2 24.1108C148.3 24.7062 148.4 25.5992 148.4 26.8892H139.3C139.3 28.1791 139.6 29.1714 140.2 29.9652C140.8 30.759 141.6 31.1559 142.8 31.1559C143.9 31.1559 144.8 30.759 145.4 30.0644C145.8 29.6675 146 29.1714 146.2 28.576H148.3C148.2 29.0722 148.1 29.5683 147.8 30.0644C147.5 30.5606 147.1 31.0567 146.8 31.4536C146.2 32.049 145.4 32.4459 144.4 32.7436C143.9 32.8428 143.3 32.942 142.7 32.942C141.1 32.942 139.8 32.3466 138.8 31.2551C137.8 30.1637 137.2 28.576 137.2 26.4923C137.2 24.5077 137.7 22.8209 138.8 21.6301C139.9 20.4394 141.3 19.7448 143.1 19.7448C143.8 19.7448 144.7 19.9433 145.5 20.3402ZM146.2 25.2023C146.1 24.3093 145.9 23.6147 145.6 23.0193C145 22.027 144.1 21.5309 142.7 21.5309C141.7 21.5309 140.9 21.8286 140.3 22.5232C139.7 23.2178 139.3 24.1108 139.3 25.2023H146.2Z" fill="white"/>
<path d="M150.9 20.0425H153V21.7294C153.4 21.134 153.9 20.7371 154.4 20.4394C155.1 19.9433 156 19.7448 156.9 19.7448C158.3 19.7448 159.5 20.2409 160.5 21.3324C161.5 22.4239 162 23.9123 162 25.9961C162 28.6752 161.3 30.6598 159.8 31.8505C158.9 32.5451 157.8 32.942 156.6 32.942C155.7 32.942 154.9 32.7436 154.2 32.3466C153.8 32.1482 153.4 31.7513 152.9 31.1559V37.4072H150.8V20.0425H150.9ZM158.8 29.7667C159.5 28.9729 159.8 27.683 159.8 26.0953C159.8 25.1031 159.7 24.21 159.4 23.5154C158.9 22.1263 157.8 21.4317 156.4 21.4317C154.9 21.4317 153.9 22.1263 153.4 23.6147C153.1 24.4085 153 25.4008 153 26.5915C153 27.5837 153.1 28.3776 153.4 29.0722C153.9 30.3621 155 30.9575 156.4 30.9575C157.4 31.0567 158.2 30.6598 158.8 29.7667Z" fill="white"/>
<path d="M171.2 24.9046C171.7 24.8054 172 24.6069 172.2 24.3093C172.3 24.1108 172.3 23.8131 172.3 23.5154C172.3 22.8208 172 22.3247 171.5 21.9278C171 21.5309 170.3 21.4317 169.3 21.4317C168.2 21.4317 167.4 21.7294 167 22.3247C166.7 22.6224 166.6 23.1185 166.5 23.8131H164.5C164.5 22.2255 165 21.2332 166 20.6379C167 20.0425 168.1 19.7448 169.4 19.7448C170.9 19.7448 172.1 20.0425 173 20.5386C173.9 21.134 174.4 21.9278 174.4 23.1185V30.2629C174.4 30.4613 174.4 30.6598 174.5 30.759C174.6 30.8582 174.8 30.9575 175.1 30.9575H175.4C175.4 30.9575 175.6 30.9575 175.8 30.8582V32.4459C175.5 32.5451 175.2 32.6443 175 32.6443C174.8 32.6443 174.6 32.6443 174.3 32.6443C173.6 32.6443 173 32.3466 172.7 31.8505C172.5 31.5528 172.4 31.1559 172.3 30.6598C171.9 31.2551 171.3 31.7513 170.4 32.1482C169.5 32.5451 168.7 32.7436 167.7 32.7436C166.5 32.7436 165.6 32.3466 164.8 31.6521C164 30.9575 163.7 30.0644 163.7 28.9729C163.7 27.7822 164.1 26.8892 164.8 26.2938C165.5 25.6984 166.5 25.3015 167.7 25.1031L171.2 24.9046ZM166.7 30.5606C167.1 30.9575 167.7 31.0567 168.3 31.0567C169 31.0567 169.8 30.8582 170.5 30.5606C171.7 29.9652 172.3 29.0722 172.3 27.7822V26.0953C172 26.2938 171.7 26.393 171.3 26.4923C170.9 26.5915 170.5 26.6907 170.1 26.6907L168.8 26.8892C168 26.9884 167.5 27.1868 167.1 27.3853C166.4 27.7822 166.1 28.3776 166.1 29.1714C166 29.7667 166.3 30.1637 166.7 30.5606Z" fill="white"/>
<path d="M177.8 19.9433H179.8V22.1263C180 21.7294 180.4 21.2332 181 20.6379C181.6 20.0425 182.4 19.7448 183.2 19.7448H183.4C183.4 19.7448 183.7 19.7448 183.9 19.7448V21.9278H183.6C183.6 21.9278 183.4 21.9278 183.3 21.9278C182.2 21.9278 181.4 22.2255 180.9 22.9201C180.4 23.6147 180 24.4085 180 25.3015V32.4459H177.9V19.9433H177.8Z" fill="white"/>
<path d="M186.2 16.4703H188.3V19.9433H190.3V21.6301H188.3V29.7668C188.3 30.1637 188.4 30.4614 188.7 30.6598C188.9 30.759 189.1 30.759 189.5 30.759H189.8C189.8 30.759 190.1 30.759 190.2 30.759V32.4459C190 32.5451 189.7 32.5451 189.4 32.6443C189.1 32.7436 188.9 32.6443 188.6 32.6443C187.6 32.6443 186.9 32.3467 186.6 31.8505C186.3 31.3544 186.1 30.6598 186.1 29.866V21.6301H184.5V19.9433H186.2V16.4703Z" fill="white"/>
<path d="M192.4 19.9433H194.5V21.7294C195 21.134 195.5 20.6379 195.9 20.4394C196.6 19.9433 197.4 19.7449 198.3 19.7449C199.3 19.7449 200.1 19.9433 200.7 20.4394C201 20.7371 201.4 21.134 201.6 21.6302C202.1 20.9356 202.6 20.4394 203.3 20.1418C204 19.8441 204.6 19.6456 205.4 19.6456C207.1 19.6456 208.2 20.241 208.8 21.4317C209.1 22.1263 209.3 22.9201 209.3 24.0116V32.4459H207.1V23.8132C207.1 23.0193 206.9 22.424 206.5 22.1263C206.1 21.8286 205.6 21.6302 205 21.6302C204.2 21.6302 203.5 21.9279 202.9 22.424C202.3 22.9201 202 23.9124 202 25.2023V32.4459H199.9V24.3093C199.9 23.4163 199.8 22.8209 199.6 22.424C199.3 21.8286 198.7 21.5309 197.8 21.5309C197 21.5309 196.3 21.8286 195.6 22.424C194.9 23.0193 194.6 24.1108 194.6 25.7977V32.4459H192.5V19.9433H192.4Z" fill="white"/>
<path d="M220.2 20.3402C221 20.7371 221.7 21.3324 222.1 21.9278C222.5 22.5232 222.8 23.317 222.9 24.1108C223 24.7062 223.1 25.5992 223.1 26.8892H214C214 28.1791 214.3 29.1714 214.9 29.9652C215.5 30.759 216.3 31.1559 217.5 31.1559C218.6 31.1559 219.5 30.759 220.1 30.0644C220.5 29.6675 220.7 29.1714 220.9 28.576H223C222.9 29.0722 222.8 29.5683 222.5 30.0644C222.2 30.5606 221.8 31.0567 221.5 31.4536C220.9 32.049 220.1 32.4459 219.1 32.7436C218.6 32.8428 218 32.942 217.4 32.942C215.8 32.942 214.5 32.3466 213.5 31.2551C212.5 30.1637 211.9 28.576 211.9 26.4923C211.9 24.5077 212.4 22.8209 213.5 21.6301C214.6 20.4394 216 19.7448 217.8 19.7448C218.5 19.7448 219.3 19.9433 220.2 20.3402ZM220.9 25.2023C220.8 24.3093 220.6 23.6147 220.3 23.0193C219.7 22.027 218.8 21.5309 217.4 21.5309C216.4 21.5309 215.6 21.8286 215 22.5232C214.3 23.2178 214 24.1108 214 25.2023H220.9Z" fill="white"/>
<path d="M225.8 19.9433H227.8V21.7294C228.4 21.0348 229 20.4394 229.7 20.1418C230.4 19.8441 231.1 19.6456 231.9 19.6456C233.7 19.6456 234.9 20.241 235.5 21.5309C235.8 22.2255 236 23.2178 236 24.4085V32.4459H233.9V24.607C233.9 23.8132 233.8 23.2178 233.6 22.7217C233.2 21.9279 232.5 21.5309 231.6 21.5309C231.1 21.5309 230.7 21.6302 230.4 21.7294C229.8 21.9279 229.3 22.2255 228.9 22.7217C228.5 23.1186 228.3 23.5155 228.2 24.0116C228.1 24.5078 228 25.1031 228 25.8969V32.4459H225.9V19.9433H225.8Z" fill="white"/>
<path d="M239.5 16.4703H241.6V19.9433H243.6V21.6301H241.6V29.7668C241.6 30.1637 241.7 30.4614 242 30.6598C242.2 30.759 242.4 30.759 242.8 30.759H243.1C243.1 30.759 243.4 30.759 243.5 30.759V32.4459C243.3 32.5451 243 32.5451 242.7 32.6443C242.4 32.7436 242.2 32.6443 241.9 32.6443C240.9 32.6443 240.2 32.3467 239.9 31.8505C239.6 31.3544 239.4 30.6598 239.4 29.866V21.6301H237.7V19.9433H239.4V16.4703H239.5Z" fill="white"/>
<path d="M261.6 21.2333C262.7 22.3248 263.3 23.9124 263.3 25.9962C263.3 27.9807 262.8 29.6676 261.8 30.9575C260.8 32.2475 259.3 32.9421 257.3 32.9421C255.6 32.9421 254.2 32.3467 253.2 31.156C252.2 29.9652 251.7 28.4768 251.7 26.4923C251.7 24.4085 252.2 22.7217 253.3 21.5309C254.4 20.3402 255.8 19.6456 257.6 19.6456C259.1 19.6456 260.4 20.1418 261.6 21.2333ZM260.2 29.4691C260.7 28.3776 261 27.2861 261 25.9962C261 24.8054 260.8 23.9124 260.4 23.1186C259.8 21.9279 258.8 21.4317 257.4 21.4317C256.1 21.4317 255.2 21.9279 254.6 22.9201C254 23.9124 253.7 25.1031 253.7 26.4923C253.7 27.7822 254 28.8737 254.6 29.7668C255.2 30.6598 256.1 31.0567 257.4 31.0567C258.8 31.0567 259.7 30.5606 260.2 29.4691Z" fill="white"/>
<path d="M266.8 16.1727C267.3 15.4781 268.2 15.0812 269.6 15.0812H270C270 15.0812 270.3 15.0812 270.5 15.0812V16.9665H270H269.7C269.1 16.9665 268.7 17.1649 268.5 17.4626C268.3 17.7603 268.3 18.6534 268.3 19.9433H270.4V21.6302H268.3V32.4459H266.2V21.7294H264.5V20.0425H266.2V18.058C266.4 17.2642 266.5 16.5696 266.8 16.1727Z" fill="white"/>
<path d="M291.5 15.3788V17.4626H285.7V32.4459H283.3V17.3634H277.5V15.2796H291.5V15.3788Z" fill="white"/>
<path d="M292.6 19.9433H294.6V22.1263C294.8 21.7294 295.2 21.2332 295.8 20.6379C296.4 20.0425 297.2 19.7448 298 19.7448H298.2C298.2 19.7448 298.5 19.7448 298.7 19.7448V21.9278H298.4C298.4 21.9278 298.2 21.9278 298.1 21.9278C297 21.9278 296.2 22.2255 295.7 22.9201C295.2 23.6147 294.8 24.4085 294.8 25.3015V32.4459H292.7V19.9433H292.6Z" fill="white"/>
<path d="M307.2 24.9046C307.7 24.8054 308 24.6069 308.2 24.3093C308.3 24.1108 308.3 23.8131 308.3 23.5154C308.3 22.8208 308 22.3247 307.5 21.9278C307 21.6301 306.3 21.4317 305.3 21.4317C304.2 21.4317 303.4 21.7294 303 22.3247C302.7 22.6224 302.6 23.1185 302.5 23.8131H300.5C300.5 22.2255 301 21.2332 302 20.6379C303 20.0425 304.1 19.7448 305.4 19.7448C306.9 19.7448 308.1 20.0425 309 20.5386C309.9 21.134 310.4 21.9278 310.4 23.1185V30.2629C310.4 30.4613 310.4 30.6598 310.5 30.759C310.6 30.8582 310.8 30.9575 311.1 30.9575H311.4C311.4 30.9575 311.6 30.9575 311.8 30.8582V32.4459C311.5 32.5451 311.2 32.6443 311 32.6443C310.8 32.6443 310.6 32.6443 310.3 32.6443C309.6 32.6443 309 32.3466 308.7 31.8505C308.5 31.5528 308.4 31.1559 308.3 30.6598C307.9 31.2551 307.3 31.7513 306.4 32.1482C305.5 32.5451 304.7 32.7436 303.7 32.7436C302.5 32.7436 301.6 32.3466 300.8 31.6521C300 30.9575 299.7 30.0644 299.7 28.9729C299.7 27.7822 300.1 26.8892 300.8 26.2938C301.5 25.6984 302.5 25.3015 303.7 25.1031L307.2 24.9046ZM302.8 30.5606C303.2 30.9575 303.8 31.0567 304.4 31.0567C305.1 31.0567 305.9 30.8582 306.6 30.5606C307.8 29.9652 308.4 29.0722 308.4 27.7822V26.0953C308.1 26.2938 307.8 26.393 307.4 26.4923C307 26.5915 306.6 26.6907 306.2 26.6907L304.9 26.8892C304.1 26.9884 303.6 27.1868 303.2 27.3853C302.5 27.7822 302.2 28.3776 302.2 29.1714C302.1 29.7667 302.3 30.1637 302.8 30.5606Z" fill="white"/>
<path d="M313.8 19.9433H315.8V21.7294C316.4 21.0348 317 20.4394 317.7 20.1418C318.4 19.8441 319.1 19.6456 319.9 19.6456C321.7 19.6456 322.9 20.241 323.5 21.5309C323.8 22.2255 324 23.2178 324 24.4085V32.4459H321.9V24.607C321.9 23.8132 321.8 23.2178 321.6 22.7217C321.2 21.9279 320.5 21.5309 319.6 21.5309C319.1 21.5309 318.7 21.6302 318.4 21.7294C317.8 21.9279 317.3 22.2255 316.9 22.7217C316.5 23.1186 316.3 23.5155 316.2 24.0116C316.1 24.5078 316 25.1031 316 25.8969V32.4459H313.9V19.9433H313.8Z" fill="white"/>
<path d="M328.4 28.5761C328.5 29.2707 328.6 29.7668 328.9 30.1637C329.4 30.8583 330.4 31.156 331.7 31.156C332.5 31.156 333.2 30.9575 333.8 30.6598C334.4 30.3622 334.7 29.7668 334.7 29.0722C334.7 28.5761 334.5 28.1792 334 27.8815C333.7 27.683 333.1 27.4846 332.2 27.2861L330.5 26.8892C329.4 26.5915 328.6 26.2938 328.1 25.9962C327.2 25.4008 326.7 24.607 326.7 23.6147C326.7 22.424 327.1 21.5309 328 20.7371C328.9 20.0425 330 19.6456 331.5 19.6456C333.4 19.6456 334.8 20.241 335.6 21.3325C336.1 22.0271 336.4 22.8209 336.4 23.6147H334.4C334.4 23.1186 334.2 22.7217 333.9 22.3248C333.4 21.7294 332.5 21.5309 331.3 21.5309C330.5 21.5309 329.9 21.7294 329.4 22.0271C328.9 22.3248 328.8 22.7217 328.8 23.2178C328.8 23.7139 329.1 24.2101 329.6 24.5078C329.9 24.7062 330.4 24.9047 331 25.0039L332.4 25.3016C333.9 25.6985 335 25.9962 335.5 26.3931C336.3 26.8892 336.7 27.7822 336.7 28.8737C336.7 29.9652 336.3 30.9575 335.4 31.7513C334.5 32.5451 333.2 32.9421 331.5 32.9421C329.6 32.9421 328.3 32.5451 327.5 31.6521C326.7 30.7591 326.3 29.7668 326.2 28.5761H328.4Z" fill="white"/>
<path d="M339 20.0425H341.1V21.7294C341.5 21.134 342 20.7371 342.5 20.4394C343.2 19.9433 344.1 19.7448 345 19.7448C346.4 19.7448 347.6 20.2409 348.6 21.3324C349.6 22.4239 350.1 23.9123 350.1 25.9961C350.1 28.6752 349.4 30.6598 347.9 31.8505C347 32.5451 345.9 32.942 344.7 32.942C343.8 32.942 343 32.7436 342.3 32.3466C341.9 32.1482 341.5 31.7513 341 31.1559V37.4072H338.9V20.0425H339ZM346.9 29.7667C347.6 28.9729 347.9 27.683 347.9 26.0953C347.9 25.1031 347.8 24.21 347.5 23.5154C347 22.1263 345.9 21.4317 344.5 21.4317C343 21.4317 342 22.1263 341.5 23.6147C341.2 24.4085 341.1 25.4008 341.1 26.5915C341.1 27.5837 341.2 28.3776 341.5 29.0722C342 30.3621 343.1 30.9575 344.5 30.9575C345.5 31.0567 346.3 30.6598 346.9 29.7667Z" fill="white"/>
<path d="M361.6 21.2333C362.7 22.3248 363.3 23.9124 363.3 25.9962C363.3 27.9807 362.8 29.6676 361.8 30.9575C360.8 32.2475 359.3 32.9421 357.3 32.9421C355.6 32.9421 354.2 32.3467 353.2 31.156C352.2 29.9652 351.7 28.4768 351.7 26.4923C351.7 24.4085 352.2 22.7217 353.3 21.5309C354.4 20.3402 355.8 19.6456 357.6 19.6456C359.2 19.6456 360.5 20.1418 361.6 21.2333ZM360.3 29.4691C360.8 28.3776 361.1 27.2861 361.1 25.9962C361.1 24.8054 360.9 23.9124 360.5 23.1186C359.9 21.9279 358.9 21.4317 357.5 21.4317C356.2 21.4317 355.3 21.9279 354.7 22.9201C354.1 23.9124 353.8 25.1031 353.8 26.4923C353.8 27.7822 354.1 28.8737 354.7 29.7668C355.3 30.6598 356.2 31.0567 357.5 31.0567C358.9 31.0567 359.8 30.5606 360.3 29.4691Z" fill="white"/>
<path d="M365.9 19.9433H367.9V22.1263C368.1 21.7294 368.5 21.2332 369.1 20.6379C369.7 20.0425 370.5 19.7448 371.3 19.7448H371.5C371.5 19.7448 371.8 19.7448 372 19.7448V21.9278H371.7C371.7 21.9278 371.5 21.9278 371.4 21.9278C370.3 21.9278 369.5 22.2255 369 22.9201C368.5 23.6147 368.1 24.4085 368.1 25.3015V32.4459H366V19.9433H365.9Z" fill="white"/>
<path d="M374.3 16.4703H376.4V19.9433H378.4V21.6301H376.4V29.7668C376.4 30.1637 376.5 30.4614 376.8 30.6598C377 30.759 377.2 30.759 377.6 30.759H377.9C377.9 30.759 378.2 30.759 378.3 30.759V32.4459C378.1 32.5451 377.8 32.5451 377.5 32.6443C377.2 32.7436 377 32.6443 376.7 32.6443C375.7 32.6443 375 32.3467 374.7 31.8505C374.4 31.3544 374.2 30.6598 374.2 29.866V21.6301H372.5V19.9433H374.2V16.4703H374.3Z" fill="white"/>
<path d="M387.3 24.9046C387.8 24.8054 388.1 24.6069 388.3 24.3093C388.4 24.1108 388.4 23.8131 388.4 23.5154C388.4 22.8208 388.1 22.3247 387.6 21.9278C387.1 21.6301 386.4 21.4317 385.4 21.4317C384.3 21.4317 383.5 21.7294 383.1 22.3247C382.8 22.6224 382.7 23.1185 382.6 23.8131H380.6C380.6 22.2255 381.1 21.2332 382.1 20.6379C383.1 20.0425 384.2 19.7448 385.5 19.7448C387 19.7448 388.2 20.0425 389.1 20.5386C390 21.134 390.5 21.9278 390.5 23.1185V30.2629C390.5 30.4613 390.5 30.6598 390.6 30.759C390.7 30.8582 390.9 30.9575 391.2 30.9575H391.5C391.5 30.9575 391.7 30.9575 391.9 30.8582V32.4459C391.6 32.5451 391.3 32.6443 391.1 32.6443C390.9 32.6443 390.7 32.6443 390.4 32.6443C389.7 32.6443 389.1 32.3466 388.8 31.8505C388.6 31.5528 388.5 31.1559 388.4 30.6598C388 31.2551 387.4 31.7513 386.5 32.1482C385.6 32.5451 384.8 32.7436 383.8 32.7436C382.6 32.7436 381.7 32.3466 380.9 31.6521C380.1 30.9575 379.8 30.0644 379.8 28.9729C379.8 27.7822 380.2 26.8892 380.9 26.2938C381.6 25.6984 382.6 25.3015 383.8 25.1031L387.3 24.9046ZM382.8 30.5606C383.2 30.9575 383.8 31.0567 384.4 31.0567C385.1 31.0567 385.9 30.8582 386.6 30.5606C387.8 29.9652 388.4 29.0722 388.4 27.7822V26.0953C388.1 26.2938 387.8 26.393 387.4 26.4923C387 26.5915 386.6 26.6907 386.2 26.6907L384.9 26.8892C384.1 26.9884 383.6 27.1868 383.2 27.3853C382.5 27.7822 382.2 28.3776 382.2 29.1714C382.2 29.7667 382.4 30.1637 382.8 30.5606Z" fill="white"/>
<path d="M394.3 16.4703H396.4V19.9433H398.4V21.6301H396.4V29.7668C396.4 30.1637 396.5 30.4614 396.8 30.6598C397 30.759 397.2 30.759 397.6 30.759H397.9C397.9 30.759 398.2 30.759 398.3 30.759V32.4459C398.1 32.5451 397.8 32.5451 397.5 32.6443C397.2 32.7436 397 32.6443 396.7 32.6443C395.7 32.6443 395 32.3467 394.7 31.8505C394.4 31.3544 394.2 30.6598 394.2 29.866V21.6301H392.5V19.9433H394.2V16.4703H394.3Z" fill="white"/>
<path d="M400.6 15.3788H402.7V17.7603H400.6V15.3788ZM400.6 20.0425H402.7V32.4459H400.6V20.0425Z" fill="white"/>
<path d="M415 21.2333C416.1 22.3248 416.7 23.9124 416.7 25.9962C416.7 27.9807 416.2 29.6676 415.2 30.9575C414.2 32.2475 412.7 32.9421 410.7 32.9421C409 32.9421 407.6 32.3467 406.6 31.156C405.6 29.9652 405.1 28.4768 405.1 26.4923C405.1 24.4085 405.6 22.7217 406.7 21.5309C407.8 20.3402 409.2 19.6456 411 19.6456C412.5 19.6456 413.9 20.1418 415 21.2333ZM413.7 29.4691C414.2 28.3776 414.5 27.2861 414.5 25.9962C414.5 24.8054 414.3 23.9124 413.9 23.1186C413.3 21.9279 412.3 21.4317 410.9 21.4317C409.6 21.4317 408.7 21.9279 408.1 22.9201C407.5 23.9124 407.2 25.1031 407.2 26.4923C407.2 27.7822 407.5 28.8737 408.1 29.7668C408.7 30.6598 409.6 31.0567 410.9 31.0567C412.2 31.0567 413.2 30.5606 413.7 29.4691Z" fill="white"/>
<path d="M419.2 19.9433H421.2V21.7294C421.8 21.0348 422.4 20.4394 423.1 20.1418C423.8 19.8441 424.5 19.6456 425.3 19.6456C427.1 19.6456 428.3 20.241 428.9 21.5309C429.2 22.2255 429.4 23.2178 429.4 24.4085V32.4459H427.3V24.607C427.3 23.8132 427.2 23.2178 427 22.7217C426.6 21.9279 425.9 21.5309 425 21.5309C424.5 21.5309 424.1 21.6302 423.8 21.7294C423.2 21.9279 422.7 22.2255 422.3 22.7217C421.9 23.1186 421.7 23.5155 421.6 24.0116C421.5 24.5078 421.4 25.1031 421.4 25.8969V32.4459H419.3V19.9433H419.2Z" fill="white"/>
<path d="M11.4 46.3377C9.40003 45.0477 7.70003 43.5593 6.20003 41.7732C3.10003 37.9034 1.20003 33.2397 0.600026 28.2783C0.100026 19.1494 2.40003 12.402 7.70003 7.63911C11.1 4.56307 15.2 3.76926 18.9 5.85302C24.2 8.73061 25.2 16.3711 21 20.6379C16.4 25.3015 9.90003 23.317 8.10003 33.1405C6.90003 39.5902 11.4 46.3377 11.4 46.3377Z" fill="white"/>
<path d="M49.9 27.683C49.9 27.683 50.7 33.4381 45.3 40.9794C42.5 44.4524 38.8 47.1315 34.6 48.7191C29.6 50.6044 23 51.4975 16.7 47.1315C12.4 44.1547 12.9 38.598 14 36.3157C15.2 33.7358 17.6 31.9497 20.5 31.4536C23.3 30.9575 26.2 31.8505 28.2 33.9343C28.6 34.3312 33.9 38.6972 39.2 37.5065C46.5 35.9188 49.9 27.683 49.9 27.683Z" fill="white"/>
<path d="M15.2 3.67005C15.2 3.67005 18.7 0.990918 25.9 0.693237C30.2 0.792464 34.3 1.88396 38.1 3.76928C42.4 6.15072 48 11.8067 49.1 18.4549C49.8 22.5232 48.8 26.8892 44.7 29.1714C39.3 32.5451 30.7 28.0799 31.7 20.7371C32.6 14.6843 32.3 10.219 28.3 6.74609C22.6 1.88396 15.2 3.67005 15.2 3.67005Z" fill="white"/>
</g>
<defs>
<clipPath id="clip0_30_307">
<rect width="429" height="49.6135" fill="white" transform="translate(0.5 0.693237)"/>
</clipPath>
</defs>
</svg>
