<svg width="295" height="21" viewBox="0 0 295 21" fill="none" xmlns="http://www.w3.org/2000/svg">
<g clip-path="url(#clip0_28_311)">
<path d="M0.5 19.8138V1.51394C0.5 0.983278 0.809165 0.663322 1.34247 0.663322H4.62735C5.16066 0.663322 5.46982 0.975474 5.46982 1.51394V19.806C5.46982 20.3445 5.16066 20.6566 4.62735 20.6566H1.34247C0.809165 20.6566 0.5 20.3445 0.5 19.806V19.8138Z" fill="#028493"/>
<path d="M9.00201 19.8138V1.51394C9.00201 0.975474 9.31118 0.663322 9.84449 0.663322H21.8169C26.2766 0.663322 28.433 3.32441 28.433 8.17057V13.2664C28.433 18.0814 26.2766 20.6566 21.8169 20.6566H9.84449C9.31118 20.6566 9.00201 20.3445 9.00201 19.806V19.8138ZM21.1986 15.9041C22.4584 15.9041 23.5018 15.6232 23.5018 13.2118V8.20178C23.5018 5.79822 22.5512 5.48606 21.1986 5.48606H13.9873V15.9041H21.1986Z" fill="#028493"/>
<path d="M31.6097 19.8138V1.51394C31.6097 0.975474 31.9188 0.663322 32.4522 0.663322H47.5085C48.0418 0.663322 48.3509 0.975474 48.3509 1.51394V4.62765C48.3509 5.16611 48.0418 5.47826 47.5085 5.47826H36.5718V8.42029H43.2188C43.7521 8.42029 44.0613 8.73244 44.0613 9.2709V11.932C44.0613 12.4705 43.7521 12.7826 43.2188 12.7826H36.5718V15.8417H47.5085C48.0418 15.8417 48.3509 16.1538 48.3509 16.6923V19.806C48.3509 20.3445 48.0418 20.6566 47.5085 20.6566H32.4522C31.9188 20.6566 31.6097 20.3445 31.6097 19.806V19.8138Z" fill="#028493"/>
<path d="M66.8622 20.0089L65.8496 17.5429H56.2269L55.2144 20.0089C55.0443 20.4303 54.712 20.6566 54.2328 20.6566H50.4764C49.8349 20.6566 49.5799 20.2586 49.8349 19.6656L58.1128 1.31884C58.306 0.866222 58.6152 0.671127 59.0944 0.671127H62.9899C63.4691 0.671127 63.7782 0.866222 63.9715 1.31884L72.2416 19.6656C72.4967 20.2586 72.2416 20.6566 71.6001 20.6566H67.8437C67.3645 20.6566 67.0322 20.4303 66.8622 20.0089ZM64.1956 13.4693L61.0576 5.82163L57.9196 13.4693H64.2033H64.1956Z" fill="#028493"/>
<path d="M73.4319 14.8038C73.401 14.2341 73.7411 13.9298 74.2744 13.9298H77.6134C78.1158 13.9298 78.3399 14.2107 78.479 14.7492C78.6723 15.5139 79.1824 15.8573 80.048 15.8573H85.6826C86.9192 15.8573 87.4525 15.5139 87.4525 14.4994C87.4525 13.4849 87.0042 13.1104 85.8526 13.0245L79.5147 12.5407C75.2251 12.1973 73.5401 10.5897 73.5401 6.82051C73.5401 3.05128 75.4492 0.678928 80.1872 0.678928H85.4584C89.694 0.678928 91.7963 2.77815 92.0745 6.53958C92.1055 7.10925 91.7654 7.4136 91.2321 7.4136H87.8931C87.3907 7.4136 87.1666 7.13266 87.0274 6.5942C86.8342 5.82943 86.3241 5.48606 85.4584 5.48606H80.2413C79.0046 5.48606 78.4713 5.82943 78.4713 6.84392C78.4713 7.85842 78.9196 8.20178 80.0712 8.28762L86.4091 8.77146C90.6678 9.08361 92.3837 10.7848 92.3837 14.5229C92.3837 18.2609 90.4746 20.6644 85.7367 20.6644H80.0403C75.8048 20.6644 73.7024 18.5652 73.4242 14.8038H73.4319Z" fill="#028493"/>
<path d="M108.228 13.6176V7.4136C108.228 3.33222 110.385 0.507248 114.875 0.507248H121.128C125.619 0.507248 127.775 3.34002 127.775 7.4136C127.775 7.92085 127.466 8.20959 126.933 8.20959H123.625C123.091 8.20959 122.782 8.03791 122.782 7.72575V7.24192C122.782 5.51728 122.195 5.31438 121.128 5.31438H114.875C113.809 5.31438 113.221 5.50948 113.221 7.24192V13.7815C113.221 15.4827 113.894 15.6778 114.875 15.6778H121.128C122.11 15.6778 122.782 15.4827 122.782 13.7815V13.3601C122.782 12.8216 123.091 12.5095 123.625 12.5095H126.933C127.466 12.5095 127.775 12.7046 127.775 13.0479V13.6176C127.775 17.6678 125.619 20.5006 121.128 20.5006H114.875C110.385 20.5006 108.228 17.6678 108.228 13.6176Z" fill="#251F20" stroke="#251F20" stroke-width="1.29" stroke-miterlimit="10"/>
<path d="M130.674 19.6499V1.35786C130.674 0.8194 130.983 0.507248 131.516 0.507248H134.824C135.358 0.507248 135.667 0.8194 135.667 1.35786V8.41249H144.362V1.35786C144.362 0.8194 144.671 0.507248 145.204 0.507248H148.513C149.046 0.507248 149.355 0.8194 149.355 1.35786V19.6499C149.355 20.1884 149.046 20.5006 148.513 20.5006H145.204C144.671 20.5006 144.362 20.1884 144.362 19.6499V12.767H135.667V19.6499C135.667 20.1884 135.358 20.5006 134.824 20.5006H131.516C130.983 20.5006 130.674 20.1884 130.674 19.6499Z" fill="#251F20" stroke="#251F20" stroke-width="1.29" stroke-miterlimit="10"/>
<path d="M168.593 19.845L167.58 17.379H157.957L156.945 19.845C156.775 20.2664 156.443 20.4928 155.963 20.4928H152.207C151.566 20.4928 151.31 20.0948 151.566 19.5017L159.836 1.15496C160.029 0.702343 160.338 0.507248 160.817 0.507248H164.713C165.192 0.507248 165.501 0.702343 165.694 1.15496L173.964 19.5017C174.22 20.0948 173.964 20.4928 173.323 20.4928H169.567C169.087 20.4928 168.755 20.2664 168.585 19.845H168.593ZM165.926 13.3055L162.788 5.65775L159.65 13.3055H165.934H165.926Z" fill="#251F20" stroke="#251F20" stroke-width="1.29" stroke-miterlimit="10"/>
<path d="M176.198 19.6499V1.35786C176.198 0.8194 176.507 0.507248 177.041 0.507248H180.349C180.882 0.507248 181.191 0.8194 181.191 1.35786V15.6856H191.425C191.958 15.6856 192.267 15.9978 192.267 16.5362V19.6499C192.267 20.1884 191.958 20.5006 191.425 20.5006H177.041C176.507 20.5006 176.198 20.1884 176.198 19.6499Z" fill="#251F20" stroke="#251F20" stroke-width="1.29" stroke-miterlimit="10"/>
<path d="M194.369 19.6499V1.35786C194.369 0.8194 194.679 0.507248 195.212 0.507248H198.52C199.053 0.507248 199.362 0.8194 199.362 1.35786V15.6856H209.596C210.129 15.6856 210.438 15.9978 210.438 16.5362V19.6499C210.438 20.1884 210.129 20.5006 209.596 20.5006H195.212C194.679 20.5006 194.369 20.1884 194.369 19.6499Z" fill="#251F20" stroke="#251F20" stroke-width="1.29" stroke-miterlimit="10"/>
<path d="M212.548 19.6499V1.35786C212.548 0.8194 212.857 0.507248 213.391 0.507248H228.447C228.98 0.507248 229.289 0.8194 229.289 1.35786V4.47157C229.289 5.01003 228.98 5.32219 228.447 5.32219H217.51V8.26422H224.157C224.691 8.26422 225 8.57637 225 9.11483V11.7759C225 12.3144 224.691 12.6265 224.157 12.6265H217.51V15.6856H228.447C228.98 15.6856 229.289 15.9978 229.289 16.5362V19.6499C229.289 20.1884 228.98 20.5006 228.447 20.5006H213.391C212.857 20.5006 212.548 20.1884 212.548 19.6499Z" fill="#251F20" stroke="#251F20" stroke-width="1.29" stroke-miterlimit="10"/>
<path d="M232.095 19.6499V1.35786C232.095 0.8194 232.404 0.507248 232.938 0.507248H236.161C236.609 0.507248 236.918 0.678931 237.196 1.01449L246.309 12.767V1.35786C246.309 0.8194 246.618 0.507248 247.151 0.507248H250.46C250.993 0.507248 251.302 0.8194 251.302 1.35786V19.6499C251.302 20.1884 250.993 20.5006 250.46 20.5006H247.236C246.788 20.5006 246.479 20.3289 246.201 19.9933L237.088 8.29543V19.6499C237.088 20.1884 236.779 20.5006 236.246 20.5006H232.938C232.404 20.5006 232.095 20.1884 232.095 19.6499Z" fill="#251F20" stroke="#251F20" stroke-width="1.29" stroke-miterlimit="10"/>
<path d="M254.255 13.6176V7.4136C254.255 3.33222 256.411 0.507248 260.902 0.507248H267.433C271.583 0.507248 273.74 2.80156 274.049 6.36789C274.08 6.93757 273.74 7.24192 273.206 7.24192H269.898C269.365 7.24192 269.11 6.96098 269.033 6.3913C268.839 5.45485 268.306 5.31438 267.433 5.31438H260.902C259.835 5.31438 259.248 5.50948 259.248 7.24192V13.7815C259.248 15.4827 259.92 15.6778 260.902 15.6778H267.433C268.414 15.6778 269.087 15.4827 269.087 13.7815V13.1338H265.5C264.967 13.1338 264.658 12.8216 264.658 12.2832V9.65329C264.658 9.11483 264.967 8.80268 265.5 8.80268H273.237C273.771 8.80268 274.08 9.11483 274.08 9.65329V13.6176C274.08 17.6678 271.923 20.5006 267.433 20.5006H260.902C256.411 20.5006 254.255 17.6678 254.255 13.6176Z" fill="#251F20" stroke="#251F20" stroke-width="1.29" stroke-miterlimit="10"/>
<path d="M277.256 19.6499V1.35786C277.256 0.8194 277.566 0.507248 278.099 0.507248H293.155C293.688 0.507248 293.998 0.8194 293.998 1.35786V4.47157C293.998 5.01003 293.688 5.32219 293.155 5.32219H282.218V8.26422H288.865C289.399 8.26422 289.708 8.57637 289.708 9.11483V11.7759C289.708 12.3144 289.399 12.6265 288.865 12.6265H282.218V15.6856H293.155C293.688 15.6856 293.998 15.9978 293.998 16.5362V19.6499C293.998 20.1884 293.688 20.5006 293.155 20.5006H278.099C277.566 20.5006 277.256 20.1884 277.256 19.6499Z" fill="#251F20" stroke="#251F20" stroke-width="1.29" stroke-miterlimit="10"/>
<path d="M98.7989 8.98216L97.4308 10.4103V12.5173L98.7989 13.9454H100.994L102.354 12.5173V10.4103L100.994 8.98216H98.7989Z" fill="#261F20"/>
</g>
<defs>
<clipPath id="clip0_28_311">
<rect width="294" height="21" fill="white" transform="translate(0.5)"/>
</clipPath>
</defs>
</svg>
