<svg width="25" height="25" viewBox="0 0 25 25" fill="none" xmlns="http://www.w3.org/2000/svg">
<g clip-path="url(#clip0_194_260)">
<path fill-rule="evenodd" clip-rule="evenodd" d="M8.68542 10.6932H5.68542V7.69324H3.68542V10.6932H0.685425V12.6932H3.68542V15.6932H5.68542V12.6932H8.68542V10.6932ZM18.6854 11.6932C20.3454 11.6932 21.6754 10.3532 21.6754 8.69324C21.6754 7.03324 20.3454 5.69324 18.6854 5.69324C18.3654 5.69324 18.0554 5.74324 17.7754 5.83324C18.3454 6.64324 18.6754 7.62324 18.6754 8.69324C18.6754 9.76324 18.3354 10.7332 17.7754 11.5532C18.0554 11.6432 18.3654 11.6932 18.6854 11.6932ZM13.6854 11.6932C15.3454 11.6932 16.6754 10.3532 16.6754 8.69324C16.6754 7.03324 15.3454 5.69324 13.6854 5.69324C12.0254 5.69324 10.6854 7.03324 10.6854 8.69324C10.6854 10.3532 12.0254 11.6932 13.6854 11.6932ZM20.3054 13.8532C21.1354 14.5832 21.6854 15.5132 21.6854 16.6932V18.6932H24.6854V16.6932C24.6854 15.1532 22.3154 14.2032 20.3054 13.8532ZM13.6854 13.6932C11.6854 13.6932 7.68542 14.6932 7.68542 16.6932V18.6932H19.6854V16.6932C19.6854 14.6932 15.6854 13.6932 13.6854 13.6932Z" fill="#028493"/>
</g>
<defs>
<clipPath id="clip0_194_260">
<rect width="24" height="24" fill="white" transform="translate(0.685425 0.693237)"/>
</clipPath>
</defs>
</svg>
