<svg width="101" height="100" viewBox="0 0 101 100" fill="none" xmlns="http://www.w3.org/2000/svg">
<g clip-path="url(#clip0_36_940)">
<path d="M84.0462 41.0358C84.0462 43.7466 81.8591 45.9337 79.1483 45.9337C76.4375 45.9337 74.2503 43.7466 74.2503 41.0358C74.2503 38.325 76.4375 36.1378 79.1483 36.1378C81.8591 36.1378 84.0462 38.325 84.0462 41.0358ZM72.9566 28.7447C72.9566 26.0955 70.7694 23.9392 68.0586 23.9392C65.3478 23.9392 63.1607 26.0955 63.1607 28.7447C63.1607 31.3939 65.3478 33.5503 68.0586 33.5503C70.7694 33.5503 72.9566 31.3939 72.9566 28.7447ZM72.9566 54.4358C72.9566 51.7866 70.7694 49.6303 68.0586 49.6303C65.3478 49.6303 63.1607 51.7866 63.1607 54.4358C63.1607 57.085 65.3478 59.2413 68.0586 59.2413C70.7694 59.2413 72.9566 57.085 72.9566 54.4358ZM72.9566 78.9255C72.9566 76.2147 70.7694 74.0276 68.0586 74.0276C65.3478 74.0276 63.1607 76.2147 63.1607 78.9255C63.1607 81.6363 65.3478 83.8234 68.0586 83.8234C70.7694 83.8234 72.9566 81.6363 72.9566 78.9255ZM84.0462 66.7268C84.0462 64.016 81.8591 61.8289 79.1483 61.8289C76.4375 61.8289 74.2503 64.016 74.2503 66.7268C74.2503 69.4377 76.4375 71.6248 79.1483 71.6248C81.8591 71.6248 84.0462 69.4377 84.0462 66.7268Z" fill="url(#paint0_linear_36_940)"/>
<path d="M44.7857 15.2523C38.1165 15.2523 32.5408 21.367 32.5408 27.4972C26.4261 27.4972 21.5128 32.3797 22.0057 39.8806C15.3981 42.191 15.3981 54.4204 21.2201 59.0873C19.0946 65.4331 23.3765 76.1377 33.773 75.229C33.773 87.4738 53.3648 87.5046 53.3648 77.6779V25.0482C53.3648 21.8907 53.1645 15.2523 44.8011 15.2523H44.7857Z" fill="white" stroke="black" stroke-linecap="round" stroke-linejoin="round"/>
<path d="M53.3494 25.0482C53.3494 21.8907 53.1491 15.2523 44.7857 15.2523C38.1165 15.2523 32.5408 21.367 32.5408 27.4972C26.4261 27.4972 21.5128 32.3797 22.0057 39.8806C15.3981 42.191 15.3981 54.4204 21.2201 59.0873C19.0946 65.4331 23.3765 76.1377 33.773 75.2289C33.773 87.4738 53.3648 87.5046 53.3648 77.6779V70.331" stroke="black" stroke-linecap="round" stroke-linejoin="round"/>
<path d="M44.3082 36.5075C38.5324 36.5075 32.4792 36.107 32.4792 27.4509" stroke="black" stroke-linecap="round" stroke-linejoin="round"/>
<path d="M33.773 47.1659C36.453 48.9372 40.9967 48.2287 43.4457 45.6565C45.2478 43.762 47.82 40.9434 49.7144 40.9434H74.2657" stroke="black" stroke-linecap="round" stroke-linejoin="round"/>
<path d="M45.9717 70.1461C47.1423 67.3429 49.9455 66.6344 53.9347 66.6344H74.2503" stroke="black" stroke-linecap="round" stroke-linejoin="round"/>
<path d="M36.5455 65.1558C33.8963 64.7245 31.5551 62.1369 31.5551 59.9806" stroke="black" stroke-linecap="round" stroke-linejoin="round"/>
<path d="M33.773 75.1365C33.773 69.0372 37.0845 59.4261 45.9717 59.4261" stroke="black" stroke-linecap="round" stroke-linejoin="round"/>
<path d="M28.7827 42.7916C31.5397 42.7916 33.773 44.7631 33.773 47.5509C33.773 49.7381 32.3714 51.8944 30.4461 52.5875" stroke="black" stroke-linecap="round" stroke-linejoin="round"/>
<path d="M63.1607 28.7447H53.3186C48.9751 28.7447 45.2478 28.1132 43.7538 24.4937" stroke="black" stroke-linecap="round" stroke-linejoin="round"/>
<path d="M53.3648 32.4413V40.9434" stroke="black" stroke-linecap="round" stroke-linejoin="round"/>
<path d="M53.3648 44.6399V66.6344" stroke="black" stroke-linecap="round" stroke-linejoin="round"/>
<path d="M53.3648 54.4358H63.1607" stroke="black" stroke-linecap="round" stroke-linejoin="round"/>
<path d="M57.0613 78.833H63.1607" stroke="black" stroke-linecap="round" stroke-linejoin="round"/>
<path d="M84.0462 41.0358C84.0462 43.7466 81.8591 45.9337 79.1483 45.9337C76.4375 45.9337 74.2503 43.7466 74.2503 41.0358C74.2503 38.3249 76.4375 36.1378 79.1483 36.1378C81.8591 36.1378 84.0462 38.3249 84.0462 41.0358Z" stroke="black" stroke-miterlimit="8"/>
<path d="M72.9565 28.7447C72.9565 31.3939 70.7694 33.5503 68.0586 33.5503C65.3478 33.5503 63.1607 31.3939 63.1607 28.7447C63.1607 26.0955 65.3478 23.9392 68.0586 23.9392C70.7694 23.9392 72.9565 26.0955 72.9565 28.7447Z" stroke="black" stroke-miterlimit="8"/>
<path d="M72.9565 54.4358C72.9565 57.085 70.7694 59.2413 68.0586 59.2413C65.3478 59.2413 63.1607 57.085 63.1607 54.4358C63.1607 51.7866 65.3478 49.6302 68.0586 49.6302C70.7694 49.6302 72.9565 51.7866 72.9565 54.4358Z" stroke="black" stroke-miterlimit="8"/>
<path d="M72.9565 78.9255C72.9565 81.6363 70.7694 83.8235 68.0586 83.8235C65.3478 83.8235 63.1607 81.6363 63.1607 78.9255C63.1607 76.2147 65.3478 74.0276 68.0586 74.0276C70.7694 74.0276 72.9565 76.2147 72.9565 78.9255Z" stroke="black" stroke-miterlimit="8"/>
<path d="M84.0462 66.7268C84.0462 69.4376 81.8591 71.6247 79.1483 71.6247C76.4375 71.6247 74.2503 69.4376 74.2503 66.7268C74.2503 64.016 76.4375 61.8289 79.1483 61.8289C81.8591 61.8289 84.0462 64.016 84.0462 66.7268Z" stroke="black" stroke-miterlimit="8"/>
</g>
<defs>
<linearGradient id="paint0_linear_36_940" x1="56.2758" y1="77.7703" x2="82.8602" y2="31.7174" gradientUnits="userSpaceOnUse">
<stop stop-color="#00B3EC"/>
<stop offset="0.16" stop-color="#00A6D2"/>
<stop offset="0.55" stop-color="#00899B"/>
<stop offset="0.84" stop-color="#007779"/>
<stop offset="1" stop-color="#00716C"/>
</linearGradient>
<clipPath id="clip0_36_940">
<rect width="68.6327" height="71.0355" fill="white" transform="translate(16.1836 14.4822)"/>
</clipPath>
</defs>
</svg>
