<svg width="25" height="25" viewBox="0 0 25 25" fill="none" xmlns="http://www.w3.org/2000/svg">
<path fill-rule="evenodd" clip-rule="evenodd" d="M9.68542 21.6932C9.68542 22.2432 10.1354 22.6932 10.6854 22.6932H14.6854C15.2354 22.6932 15.6854 22.2432 15.6854 21.6932V20.6932H9.68542V21.6932ZM12.6854 2.69324C8.82542 2.69324 5.68542 5.83324 5.68542 9.69324C5.68542 12.0732 6.87542 14.1632 8.68542 15.4332V17.6932C8.68542 18.2432 9.13542 18.6932 9.68542 18.6932H15.6854C16.2354 18.6932 16.6854 18.2432 16.6854 17.6932V15.4332C18.4954 14.1632 19.6854 12.0732 19.6854 9.69324C19.6854 5.83324 16.5454 2.69324 12.6854 2.69324ZM14.6854 14.3932V16.6932H10.6854V14.3932C9.16542 13.3232 7.68542 12.2232 7.68542 9.69324C7.68542 6.93324 9.92542 4.69324 12.6854 4.69324C15.4454 4.69324 17.6854 6.93324 17.6854 9.69324C17.6854 12.1832 16.1754 13.3432 14.6854 14.3932Z" fill="white"/>
</svg>
