<svg width="101" height="100" viewBox="0 0 101 100" fill="none" xmlns="http://www.w3.org/2000/svg">
<g clip-path="url(#clip0_36_964)">
<path d="M84.5741 61.0925V74.6549C84.5741 77.6342 82.158 80.0502 79.1788 80.0502H22.9133C19.934 80.0502 17.518 77.6342 17.518 74.6549V28.5427C17.518 25.5486 19.934 23.1326 22.9133 23.1326H79.1788C82.158 23.1326 84.5741 25.5486 84.5741 28.5279V28.9874" stroke="black" stroke-miterlimit="8"/>
<path d="M84.5741 61.0925V74.6549C84.5741 77.6342 82.158 80.0502 79.1788 80.0502H22.9133C19.934 80.0502 17.518 77.6342 17.518 74.6549V28.5427C17.518 25.5486 19.934 23.1326 22.9133 23.1326H79.1788C82.158 23.1326 84.5741 25.5486 84.5741 28.5279V28.9874" stroke="black" stroke-width="1.01" stroke-miterlimit="8"/>
<path fill-rule="evenodd" clip-rule="evenodd" d="M78.0078 63.7011C86.8122 62.0262 93.4675 54.3038 93.4675 45.0102C93.4675 34.5012 84.9446 25.9932 74.4356 25.9932C63.9266 25.9932 55.4038 34.516 55.4038 45.0102C55.4038 51.7543 58.9167 57.6832 64.1934 61.0479C65.4978 61.8928 67.7508 63.1379 70.819 63.7159C73.902 64.3088 76.4959 63.9827 77.993 63.6863L78.0078 63.7011Z" fill="white" stroke="black" stroke-miterlimit="8"/>
<path d="M78.0078 63.7011C86.8122 62.0262 93.4675 54.3038 93.4675 45.0102C93.4675 34.5012 84.9446 25.9932 74.4356 25.9932C63.9266 25.9932 55.4038 34.516 55.4038 45.0102C55.4038 51.7543 58.9167 57.6832 64.1934 61.0479C65.4978 61.8928 67.7508 63.1379 70.819 63.7159C73.902 64.3088 76.4959 63.9827 77.993 63.6863L78.0078 63.7011Z" stroke="black" stroke-width="1.01" stroke-miterlimit="8"/>
<path d="M74.406 45.0102L84.9446 55.5785C82.158 58.3799 78.3635 59.9511 74.406 59.9511C66.2389 59.9511 59.5096 53.2069 59.5096 45.0102C59.5096 36.8135 66.2389 30.0693 74.406 30.0693V45.0102Z" fill="url(#paint0_linear_36_964)"/>
<path d="M74.406 45.0102L84.9446 55.5785C82.158 58.3799 78.3635 59.9511 74.406 59.9511C66.2389 59.9511 59.5096 53.2069 59.5096 45.0102C59.5096 36.8135 66.2389 30.0693 74.406 30.0693V45.0102Z" stroke="black" stroke-width="1.01" stroke-miterlimit="8"/>
<path d="M74.4356 59.9512V56.3938" stroke="black" stroke-width="1.01" stroke-miterlimit="8"/>
<path d="M59.4947 45.0103H63.0521" stroke="black" stroke-width="1.01" stroke-miterlimit="8"/>
<path fill-rule="evenodd" clip-rule="evenodd" d="M81.7282 31.8479C86.4713 34.3232 89.7322 39.2887 89.7322 45.0101L81.7282 31.8479Z" fill="white"/>
<path d="M81.7282 31.8479C86.4713 34.3232 89.7322 39.2887 89.7322 45.0101" stroke="black" stroke-miterlimit="8"/>
<path d="M81.7282 31.8479C86.4713 34.3232 89.7322 39.2887 89.7322 45.0101" stroke="black" stroke-width="1.01" stroke-miterlimit="8"/>
<path d="M38.8621 70.9788H26.5892V39.6741" stroke="black" stroke-width="1.01" stroke-miterlimit="8"/>
<path d="M29.7908 42.8757L26.5003 39.6741L23.2097 42.8757" stroke="black" stroke-width="1.01" stroke-miterlimit="8"/>
<path d="M26.5892 57.1052L37.5429 45.9884L42.7159 51.2504L51.3128 42.52" stroke="black" stroke-width="1.01" stroke-miterlimit="8"/>
<path d="M21.7868 28.2905H33.3482" stroke="black" stroke-width="1.01" stroke-miterlimit="8"/>
<path d="M35.7049 73.2615C35.5419 72.7428 35.8383 72.1795 36.3571 72.0165L38.3137 71.4236C38.536 71.3495 38.6842 71.1568 38.6842 70.9196C38.6842 70.3119 38.7435 69.6894 38.8473 69.0965C38.8917 68.8741 38.788 68.637 38.5805 68.5332L36.7721 67.5698C36.283 67.3178 36.1051 66.6953 36.3571 66.2209L38.1358 62.8415C38.3878 62.3523 39.0103 62.1745 39.4846 62.4264L41.293 63.3899C41.5005 63.4936 41.7524 63.4492 41.9155 63.2861C42.3453 62.8711 42.8196 62.4709 43.3236 62.1152C43.5163 61.9818 43.6052 61.7446 43.5311 61.5223L42.9382 59.5657C42.7752 59.0469 43.0716 58.4837 43.5904 58.3207L47.2367 57.1793C47.7555 57.0163 48.3187 57.3127 48.4818 57.8315L49.0747 59.7881C49.1488 60.0104 49.3415 60.1586 49.5786 60.1586C50.1863 60.1586 50.8089 60.2179 51.4018 60.3217C51.6241 60.3661 51.8612 60.2624 51.965 60.0549L52.9285 58.2465C53.1804 57.7574 53.803 57.5795 54.2773 57.8315L57.6568 59.6102C58.1459 59.8622 58.3238 60.4847 58.0718 60.959L57.1083 62.7673C57.0046 62.9749 57.0491 63.2268 57.2121 63.3899C57.6271 63.8197 58.0273 64.294 58.3831 64.798C58.5165 64.9907 58.7536 65.0796 58.976 65.0055L60.9325 64.4126C61.4513 64.2496 62.0145 64.546 62.1776 65.0648L63.3189 68.7111C63.4819 69.2299 63.1855 69.7931 62.6667 69.9562L60.7102 70.5491C60.4878 70.6232 60.3396 70.8159 60.3396 71.053C60.3396 71.6607 60.2803 72.2833 60.1766 72.8762C60.1321 73.0985 60.2358 73.3356 60.4434 73.4394L62.2517 74.4029C62.7408 74.6548 62.9187 75.2774 62.6667 75.7517L60.888 79.1312C60.6361 79.6203 60.0135 79.7982 59.5392 79.5462L57.7309 78.5827C57.5234 78.479 57.2714 78.5235 57.1083 78.6865C56.6785 79.1015 56.2042 79.5017 55.7002 79.8575C55.5075 79.9909 55.4186 80.228 55.4927 80.4504L56.0856 82.4069C56.2487 82.9257 55.9522 83.4889 55.4334 83.652L51.7871 84.7933C51.2684 84.9563 50.7051 84.6599 50.5421 84.1411L49.9492 82.1846C49.8751 81.9622 49.6824 81.814 49.4452 81.814C48.8375 81.814 48.215 81.7547 47.6221 81.651C47.3997 81.6065 47.1626 81.7102 47.0588 81.9178L46.0954 83.7261C45.8434 84.2152 45.2209 84.3931 44.7465 84.1411L41.3671 82.3624C40.8779 82.1105 40.7001 81.4879 40.952 81.0136L41.9155 79.2053C42.0192 78.9978 41.9748 78.7458 41.8117 78.5827C41.3967 78.1529 40.9965 77.6786 40.6408 77.1746C40.5074 76.9819 40.2702 76.893 40.0479 76.9671L38.0913 77.56C37.5726 77.7231 37.0093 77.4266 36.8463 76.9078L35.7049 73.2615ZM54.8109 69.9562C54.218 67.0362 51.3721 65.1537 48.4521 65.7318C45.5321 66.3247 43.6349 69.1706 44.2278 72.0906C44.8207 75.0106 47.6665 76.893 50.5865 76.3149C53.5065 75.722 55.4038 72.8762 54.8109 69.9562Z" fill="white" stroke="black" stroke-width="1.01" stroke-miterlimit="8"/>
<path d="M54.8109 69.956C55.4038 72.876 53.5065 75.7219 50.5865 76.3148C47.6665 76.9077 44.8058 75.0252 44.2278 72.0904C43.6349 69.1704 45.5321 66.3245 48.4521 65.7316C51.3721 65.1388 54.2328 67.0212 54.8109 69.956Z" stroke="black" stroke-width="1.01" stroke-miterlimit="8"/>
</g>
<defs>
<linearGradient id="paint0_linear_36_964" x1="66.728" y1="57.8019" x2="80.661" y2="33.686" gradientUnits="userSpaceOnUse">
<stop stop-color="#00B3EC"/>
<stop offset="0.16" stop-color="#00A6D2"/>
<stop offset="0.55" stop-color="#00899B"/>
<stop offset="0.84" stop-color="#007779"/>
<stop offset="1" stop-color="#00716C"/>
</linearGradient>
<clipPath id="clip0_36_964">
<rect width="77.4465" height="63.2171" fill="white" transform="translate(16.7769 22.3914)"/>
</clipPath>
</defs>
</svg>
